<svg xmlns="http://www.w3.org/2000/svg" xmlns:xlink="http://www.w3.org/1999/xlink" width="1232" zoomAndPan="magnify" viewBox="0 0 924 252.749989" height="337" preserveAspectRatio="xMidYMid meet" version="1.0"><defs><g/><clipPath id="7043456d24"><rect x="0" width="126" y="0" height="97"/></clipPath><clipPath id="dd89f7241e"><rect x="0" width="66" y="0" height="118"/></clipPath><clipPath id="111dbb0671"><rect x="0" width="121" y="0" height="118"/></clipPath><clipPath id="1f7406ecd8"><rect x="0" width="149" y="0" height="113"/></clipPath><clipPath id="174807b286"><rect x="0" width="200" y="0" height="147"/></clipPath><clipPath id="ff0b97cc1b"><path d="M 279 16 L 409.707031 16 L 409.707031 90 L 279 90 Z M 279 16 " clip-rule="nonzero"/></clipPath><clipPath id="93673cad5a"><rect x="0" width="410" y="0" height="113"/></clipPath></defs><g transform="matrix(1, 0, 0, 1, 377, 6)"><g clip-path="url(#7043456d24)"><g fill="#bb5c5c" fill-opacity="0.4"><g transform="translate(4.289702, 76.44606)"><g><path d="M 119.015625 -13.40625 C 119.015625 -13.070312 119.015625 -12.367188 119.015625 -11.296875 C 119.015625 -10.234375 119.015625 -9.023438 119.015625 -7.671875 C 119.015625 -6.328125 119.015625 -5.050781 119.015625 -3.84375 C 119.015625 -2.632812 119.015625 -1.660156 119.015625 -0.921875 C 119.015625 -0.0234375 118.5625 0.421875 117.65625 0.421875 C 117.320312 0.421875 115.804688 0.421875 113.109375 0.421875 C 110.410156 0.421875 106.851562 0.421875 102.4375 0.421875 C 98.019531 0.421875 93.039062 0.421875 87.5 0.421875 C 81.96875 0.421875 76.191406 0.421875 70.171875 0.421875 C 64.160156 0.421875 58.1875 0.421875 52.25 0.421875 C 46.320312 0.421875 40.742188 0.421875 35.515625 0.421875 C 30.285156 0.421875 25.753906 0.421875 21.921875 0.421875 C 21.816406 0.421875 21.707031 0.421875 21.59375 0.421875 L 5.90625 0.421875 C 5.394531 0.421875 5.164062 0.289062 5.21875 0.03125 C 5.28125 -0.21875 5.476562 -0.394531 5.8125 -0.5 C 6.832031 -0.726562 7.507812 -1.164062 7.84375 -1.8125 C 8.175781 -2.457031 8.34375 -3.171875 8.34375 -3.953125 C 8.34375 -4.742188 8.34375 -5.503906 8.34375 -6.234375 C 8.34375 -6.515625 8.34375 -7.5 8.34375 -9.1875 C 8.34375 -10.875 8.34375 -13.007812 8.34375 -15.59375 C 8.34375 -18.1875 8.34375 -21.03125 8.34375 -24.125 L 8.34375 -59.203125 C 8.34375 -59.941406 8.242188 -60.59375 8.046875 -61.15625 C 7.859375 -61.71875 7.3125 -62.191406 6.40625 -62.578125 C 5.90625 -62.753906 5.664062 -62.976562 5.6875 -63.25 C 5.71875 -63.53125 5.988281 -63.671875 6.5 -63.671875 L 21.421875 -63.671875 C 21.585938 -63.671875 21.703125 -63.644531 21.765625 -63.59375 C 25.640625 -63.59375 30.191406 -63.59375 35.421875 -63.59375 C 40.648438 -63.59375 46.226562 -63.59375 52.15625 -63.59375 C 58.09375 -63.59375 64.066406 -63.59375 70.078125 -63.59375 C 76.097656 -63.59375 81.863281 -63.59375 87.375 -63.59375 C 92.882812 -63.59375 97.847656 -63.601562 102.265625 -63.625 C 106.679688 -63.65625 110.238281 -63.671875 112.9375 -63.671875 C 115.632812 -63.671875 117.148438 -63.671875 117.484375 -63.671875 C 118.441406 -63.671875 118.921875 -63.195312 118.921875 -62.25 C 118.921875 -61.570312 118.921875 -60.613281 118.921875 -59.375 C 118.921875 -58.132812 118.921875 -56.835938 118.921875 -55.484375 C 118.921875 -54.140625 118.921875 -52.945312 118.921875 -51.90625 C 118.921875 -50.875 118.921875 -50.1875 118.921875 -49.84375 C 118.921875 -49.5625 118.796875 -49.421875 118.546875 -49.421875 C 118.296875 -49.421875 118.171875 -49.5625 118.171875 -49.84375 C 117.941406 -51.25 117.40625 -52.132812 116.5625 -52.5 C 115.71875 -52.863281 114.734375 -53.046875 113.609375 -53.046875 C 112.710938 -53.046875 111.125 -53.046875 108.84375 -53.046875 C 106.5625 -53.046875 104.054688 -53.046875 101.328125 -53.046875 C 98.609375 -53.046875 96.097656 -53.046875 93.796875 -53.046875 L 93.796875 -53.140625 L 68.234375 -53.140625 C 66.097656 -53.140625 63.492188 -53.140625 60.421875 -53.140625 C 57.359375 -53.140625 54.070312 -53.140625 50.5625 -53.140625 C 47.050781 -53.140625 43.492188 -53.140625 39.890625 -53.140625 C 36.296875 -53.140625 32.878906 -53.140625 29.640625 -53.140625 C 26.410156 -53.140625 23.554688 -53.140625 21.078125 -53.140625 C 20.523438 -53.140625 20.035156 -52.925781 19.609375 -52.5 C 19.191406 -52.082031 18.984375 -51.59375 18.984375 -51.03125 C 18.984375 -49.175781 18.984375 -47.007812 18.984375 -44.53125 C 18.984375 -42.0625 18.984375 -39.476562 18.984375 -36.78125 C 18.984375 -36.15625 19.191406 -35.644531 19.609375 -35.25 C 20.035156 -34.863281 20.523438 -34.671875 21.078125 -34.671875 C 23.890625 -34.671875 26.519531 -34.671875 28.96875 -34.671875 C 31.414062 -34.671875 33.539062 -34.671875 35.34375 -34.671875 L 60.890625 -34.671875 L 60.890625 -34.75 C 63.203125 -34.75 65.71875 -34.75 68.4375 -34.75 C 71.164062 -34.75 73.671875 -34.75 75.953125 -34.75 C 78.234375 -34.75 79.820312 -34.75 80.71875 -34.75 C 81.84375 -34.75 82.828125 -34.929688 83.671875 -35.296875 C 84.515625 -35.660156 85.046875 -36.546875 85.265625 -37.953125 C 85.265625 -38.234375 85.390625 -38.375 85.640625 -38.375 C 85.898438 -38.375 86.03125 -38.234375 86.03125 -37.953125 C 86.03125 -37.671875 86.03125 -37.09375 86.03125 -36.21875 C 86.03125 -35.351562 86.03125 -34.359375 86.03125 -33.234375 C 86.03125 -33.171875 86.03125 -33.140625 86.03125 -33.140625 C 85.976562 -32.691406 85.953125 -32.144531 85.953125 -31.5 C 85.953125 -30.851562 85.953125 -30.140625 85.953125 -29.359375 C 85.953125 -28.617188 85.953125 -27.925781 85.953125 -27.28125 C 85.953125 -26.632812 85.976562 -26.085938 86.03125 -25.640625 L 86.03125 -25.46875 C 86.03125 -24.40625 86.03125 -23.4375 86.03125 -22.5625 C 86.03125 -21.6875 86.03125 -21.082031 86.03125 -20.75 C 86.03125 -20.519531 85.898438 -20.40625 85.640625 -20.40625 C 85.390625 -20.40625 85.265625 -20.546875 85.265625 -20.828125 C 85.046875 -22.234375 84.515625 -23.117188 83.671875 -23.484375 C 82.828125 -23.847656 81.84375 -24.03125 80.71875 -24.03125 C 79.820312 -24.03125 78.234375 -24.03125 75.953125 -24.03125 C 73.671875 -24.03125 71.164062 -24.03125 68.4375 -24.03125 C 65.71875 -24.03125 63.203125 -24.03125 60.890625 -24.03125 L 60.890625 -24.125 L 35.34375 -24.125 C 33.539062 -24.125 31.414062 -24.125 28.96875 -24.125 C 26.519531 -24.125 23.890625 -24.125 21.078125 -24.125 C 20.523438 -24.125 20.035156 -23.910156 19.609375 -23.484375 C 19.191406 -23.066406 18.984375 -22.578125 18.984375 -22.015625 L 18.984375 -18.21875 C 18.984375 -17.09375 18.984375 -16.023438 18.984375 -15.015625 C 18.984375 -14.003906 18.984375 -13.078125 18.984375 -12.234375 C 18.984375 -11.609375 19.191406 -11.097656 19.609375 -10.703125 C 20.035156 -10.316406 20.523438 -10.125 21.078125 -10.125 C 23.554688 -10.125 26.425781 -10.125 29.6875 -10.125 C 32.945312 -10.125 36.363281 -10.125 39.9375 -10.125 C 43.507812 -10.125 47.066406 -10.125 50.609375 -10.125 C 54.148438 -10.125 57.453125 -10.125 60.515625 -10.125 C 63.578125 -10.125 66.175781 -10.125 68.3125 -10.125 L 93.875 -10.125 C 96.175781 -10.125 98.703125 -10.125 101.453125 -10.125 C 104.210938 -10.125 106.71875 -10.125 108.96875 -10.125 C 111.21875 -10.125 112.789062 -10.125 113.6875 -10.125 C 114.8125 -10.175781 115.8125 -10.382812 116.6875 -10.75 C 117.5625 -11.113281 118.082031 -11.972656 118.25 -13.328125 C 118.25 -13.660156 118.375 -13.828125 118.625 -13.828125 C 118.882812 -13.828125 119.015625 -13.6875 119.015625 -13.40625 Z M 119.015625 -13.40625 "/></g></g></g><g fill="#f4edca" fill-opacity="1"><g transform="translate(0.562374, 72.718733)"><g><path d="M 119.015625 -13.40625 C 119.015625 -13.070312 119.015625 -12.367188 119.015625 -11.296875 C 119.015625 -10.234375 119.015625 -9.023438 119.015625 -7.671875 C 119.015625 -6.328125 119.015625 -5.050781 119.015625 -3.84375 C 119.015625 -2.632812 119.015625 -1.660156 119.015625 -0.921875 C 119.015625 -0.0234375 118.5625 0.421875 117.65625 0.421875 C 117.320312 0.421875 115.804688 0.421875 113.109375 0.421875 C 110.410156 0.421875 106.851562 0.421875 102.4375 0.421875 C 98.019531 0.421875 93.039062 0.421875 87.5 0.421875 C 81.96875 0.421875 76.191406 0.421875 70.171875 0.421875 C 64.160156 0.421875 58.1875 0.421875 52.25 0.421875 C 46.320312 0.421875 40.742188 0.421875 35.515625 0.421875 C 30.285156 0.421875 25.753906 0.421875 21.921875 0.421875 C 21.816406 0.421875 21.707031 0.421875 21.59375 0.421875 L 5.90625 0.421875 C 5.394531 0.421875 5.164062 0.289062 5.21875 0.03125 C 5.28125 -0.21875 5.476562 -0.394531 5.8125 -0.5 C 6.832031 -0.726562 7.507812 -1.164062 7.84375 -1.8125 C 8.175781 -2.457031 8.34375 -3.171875 8.34375 -3.953125 C 8.34375 -4.742188 8.34375 -5.503906 8.34375 -6.234375 C 8.34375 -6.515625 8.34375 -7.5 8.34375 -9.1875 C 8.34375 -10.875 8.34375 -13.007812 8.34375 -15.59375 C 8.34375 -18.1875 8.34375 -21.03125 8.34375 -24.125 L 8.34375 -59.203125 C 8.34375 -59.941406 8.242188 -60.59375 8.046875 -61.15625 C 7.859375 -61.71875 7.3125 -62.191406 6.40625 -62.578125 C 5.90625 -62.753906 5.664062 -62.976562 5.6875 -63.25 C 5.71875 -63.53125 5.988281 -63.671875 6.5 -63.671875 L 21.421875 -63.671875 C 21.585938 -63.671875 21.703125 -63.644531 21.765625 -63.59375 C 25.640625 -63.59375 30.191406 -63.59375 35.421875 -63.59375 C 40.648438 -63.59375 46.226562 -63.59375 52.15625 -63.59375 C 58.09375 -63.59375 64.066406 -63.59375 70.078125 -63.59375 C 76.097656 -63.59375 81.863281 -63.59375 87.375 -63.59375 C 92.882812 -63.59375 97.847656 -63.601562 102.265625 -63.625 C 106.679688 -63.65625 110.238281 -63.671875 112.9375 -63.671875 C 115.632812 -63.671875 117.148438 -63.671875 117.484375 -63.671875 C 118.441406 -63.671875 118.921875 -63.195312 118.921875 -62.25 C 118.921875 -61.570312 118.921875 -60.613281 118.921875 -59.375 C 118.921875 -58.132812 118.921875 -56.835938 118.921875 -55.484375 C 118.921875 -54.140625 118.921875 -52.945312 118.921875 -51.90625 C 118.921875 -50.875 118.921875 -50.1875 118.921875 -49.84375 C 118.921875 -49.5625 118.796875 -49.421875 118.546875 -49.421875 C 118.296875 -49.421875 118.171875 -49.5625 118.171875 -49.84375 C 117.941406 -51.25 117.40625 -52.132812 116.5625 -52.5 C 115.71875 -52.863281 114.734375 -53.046875 113.609375 -53.046875 C 112.710938 -53.046875 111.125 -53.046875 108.84375 -53.046875 C 106.5625 -53.046875 104.054688 -53.046875 101.328125 -53.046875 C 98.609375 -53.046875 96.097656 -53.046875 93.796875 -53.046875 L 93.796875 -53.140625 L 68.234375 -53.140625 C 66.097656 -53.140625 63.492188 -53.140625 60.421875 -53.140625 C 57.359375 -53.140625 54.070312 -53.140625 50.5625 -53.140625 C 47.050781 -53.140625 43.492188 -53.140625 39.890625 -53.140625 C 36.296875 -53.140625 32.878906 -53.140625 29.640625 -53.140625 C 26.410156 -53.140625 23.554688 -53.140625 21.078125 -53.140625 C 20.523438 -53.140625 20.035156 -52.925781 19.609375 -52.5 C 19.191406 -52.082031 18.984375 -51.59375 18.984375 -51.03125 C 18.984375 -49.175781 18.984375 -47.007812 18.984375 -44.53125 C 18.984375 -42.0625 18.984375 -39.476562 18.984375 -36.78125 C 18.984375 -36.15625 19.191406 -35.644531 19.609375 -35.25 C 20.035156 -34.863281 20.523438 -34.671875 21.078125 -34.671875 C 23.890625 -34.671875 26.519531 -34.671875 28.96875 -34.671875 C 31.414062 -34.671875 33.539062 -34.671875 35.34375 -34.671875 L 60.890625 -34.671875 L 60.890625 -34.75 C 63.203125 -34.75 65.71875 -34.75 68.4375 -34.75 C 71.164062 -34.75 73.671875 -34.75 75.953125 -34.75 C 78.234375 -34.75 79.820312 -34.75 80.71875 -34.75 C 81.84375 -34.75 82.828125 -34.929688 83.671875 -35.296875 C 84.515625 -35.660156 85.046875 -36.546875 85.265625 -37.953125 C 85.265625 -38.234375 85.390625 -38.375 85.640625 -38.375 C 85.898438 -38.375 86.03125 -38.234375 86.03125 -37.953125 C 86.03125 -37.671875 86.03125 -37.09375 86.03125 -36.21875 C 86.03125 -35.351562 86.03125 -34.359375 86.03125 -33.234375 C 86.03125 -33.171875 86.03125 -33.140625 86.03125 -33.140625 C 85.976562 -32.691406 85.953125 -32.144531 85.953125 -31.5 C 85.953125 -30.851562 85.953125 -30.140625 85.953125 -29.359375 C 85.953125 -28.617188 85.953125 -27.925781 85.953125 -27.28125 C 85.953125 -26.632812 85.976562 -26.085938 86.03125 -25.640625 L 86.03125 -25.46875 C 86.03125 -24.40625 86.03125 -23.4375 86.03125 -22.5625 C 86.03125 -21.6875 86.03125 -21.082031 86.03125 -20.75 C 86.03125 -20.519531 85.898438 -20.40625 85.640625 -20.40625 C 85.390625 -20.40625 85.265625 -20.546875 85.265625 -20.828125 C 85.046875 -22.234375 84.515625 -23.117188 83.671875 -23.484375 C 82.828125 -23.847656 81.84375 -24.03125 80.71875 -24.03125 C 79.820312 -24.03125 78.234375 -24.03125 75.953125 -24.03125 C 73.671875 -24.03125 71.164062 -24.03125 68.4375 -24.03125 C 65.71875 -24.03125 63.203125 -24.03125 60.890625 -24.03125 L 60.890625 -24.125 L 35.34375 -24.125 C 33.539062 -24.125 31.414062 -24.125 28.96875 -24.125 C 26.519531 -24.125 23.890625 -24.125 21.078125 -24.125 C 20.523438 -24.125 20.035156 -23.910156 19.609375 -23.484375 C 19.191406 -23.066406 18.984375 -22.578125 18.984375 -22.015625 L 18.984375 -18.21875 C 18.984375 -17.09375 18.984375 -16.023438 18.984375 -15.015625 C 18.984375 -14.003906 18.984375 -13.078125 18.984375 -12.234375 C 18.984375 -11.609375 19.191406 -11.097656 19.609375 -10.703125 C 20.035156 -10.316406 20.523438 -10.125 21.078125 -10.125 C 23.554688 -10.125 26.425781 -10.125 29.6875 -10.125 C 32.945312 -10.125 36.363281 -10.125 39.9375 -10.125 C 43.507812 -10.125 47.066406 -10.125 50.609375 -10.125 C 54.148438 -10.125 57.453125 -10.125 60.515625 -10.125 C 63.578125 -10.125 66.175781 -10.125 68.3125 -10.125 L 93.875 -10.125 C 96.175781 -10.125 98.703125 -10.125 101.453125 -10.125 C 104.210938 -10.125 106.71875 -10.125 108.96875 -10.125 C 111.21875 -10.125 112.789062 -10.125 113.6875 -10.125 C 114.8125 -10.175781 115.8125 -10.382812 116.6875 -10.75 C 117.5625 -11.113281 118.082031 -11.972656 118.25 -13.328125 C 118.25 -13.660156 118.375 -13.828125 118.625 -13.828125 C 118.882812 -13.828125 119.015625 -13.6875 119.015625 -13.40625 Z M 119.015625 -13.40625 "/></g></g></g></g></g><g transform="matrix(1, 0, 0, 1, 310, 0)"><g clip-path="url(#dd89f7241e)"><g fill="#bb5c5c" fill-opacity="0.4"><g transform="translate(5.664128, 94.355456)"><g><path d="M 32.296875 0.5 L 17.140625 0 C 14.234375 0 9.707031 0.164062 3.5625 0.5 C 3.363281 -0.757812 3.429688 -1.914062 3.765625 -2.96875 C 6.535156 -3.363281 9.175781 -4.023438 11.6875 -4.953125 L 11.6875 -64.375 L 4.0625 -66.359375 C 3.863281 -67.617188 4.03125 -68.773438 4.5625 -69.828125 C 10.5 -69.492188 14.523438 -69.328125 16.640625 -69.328125 L 29.90625 -69.4375 C 46.21875 -69.5625 54.441406 -64.242188 54.578125 -53.484375 C 54.578125 -49.191406 53.109375 -45.578125 50.171875 -42.640625 C 47.234375 -39.703125 43.582031 -37.867188 39.21875 -37.140625 L 39.21875 -36.9375 C 52.289062 -35.488281 58.828125 -29.445312 58.828125 -18.8125 C 58.828125 -15.25 58.097656 -12.160156 56.640625 -9.546875 C 55.191406 -6.941406 53.179688 -4.929688 50.609375 -3.515625 C 48.035156 -2.097656 45.242188 -1.070312 42.234375 -0.4375 C 39.234375 0.1875 35.921875 0.5 32.296875 0.5 Z M 22.09375 -4.453125 L 31.09375 -3.96875 C 37.175781 -3.96875 41.503906 -5.269531 44.078125 -7.875 C 46.648438 -10.476562 47.867188 -14.160156 47.734375 -18.921875 C 47.734375 -24.335938 46.332031 -28.179688 43.53125 -30.453125 C 40.726562 -32.734375 35.925781 -33.875 29.125 -33.875 L 22.09375 -33.875 Z M 22.09375 -38.828125 L 27.828125 -38.828125 C 33.640625 -38.828125 37.785156 -40 40.265625 -42.34375 C 42.742188 -44.6875 43.984375 -48.269531 43.984375 -53.09375 C 43.984375 -57.25 42.675781 -60.234375 40.0625 -62.046875 C 37.457031 -63.867188 33.117188 -64.78125 27.046875 -64.78125 C 26.117188 -64.78125 24.46875 -64.710938 22.09375 -64.578125 Z M 22.09375 -38.828125 "/></g></g></g><g fill="#f4edca" fill-opacity="1"><g transform="translate(1.286789, 89.978116)"><g><path d="M 32.296875 0.5 L 17.140625 0 C 14.234375 0 9.707031 0.164062 3.5625 0.5 C 3.363281 -0.757812 3.429688 -1.914062 3.765625 -2.96875 C 6.535156 -3.363281 9.175781 -4.023438 11.6875 -4.953125 L 11.6875 -64.375 L 4.0625 -66.359375 C 3.863281 -67.617188 4.03125 -68.773438 4.5625 -69.828125 C 10.5 -69.492188 14.523438 -69.328125 16.640625 -69.328125 L 29.90625 -69.4375 C 46.21875 -69.5625 54.441406 -64.242188 54.578125 -53.484375 C 54.578125 -49.191406 53.109375 -45.578125 50.171875 -42.640625 C 47.234375 -39.703125 43.582031 -37.867188 39.21875 -37.140625 L 39.21875 -36.9375 C 52.289062 -35.488281 58.828125 -29.445312 58.828125 -18.8125 C 58.828125 -15.25 58.097656 -12.160156 56.640625 -9.546875 C 55.191406 -6.941406 53.179688 -4.929688 50.609375 -3.515625 C 48.035156 -2.097656 45.242188 -1.070312 42.234375 -0.4375 C 39.234375 0.1875 35.921875 0.5 32.296875 0.5 Z M 22.09375 -4.453125 L 31.09375 -3.96875 C 37.175781 -3.96875 41.503906 -5.269531 44.078125 -7.875 C 46.648438 -10.476562 47.867188 -14.160156 47.734375 -18.921875 C 47.734375 -24.335938 46.332031 -28.179688 43.53125 -30.453125 C 40.726562 -32.734375 35.925781 -33.875 29.125 -33.875 L 22.09375 -33.875 Z M 22.09375 -38.828125 L 27.828125 -38.828125 C 33.640625 -38.828125 37.785156 -40 40.265625 -42.34375 C 42.742188 -44.6875 43.984375 -48.269531 43.984375 -53.09375 C 43.984375 -57.25 42.675781 -60.234375 40.0625 -62.046875 C 37.457031 -63.867188 33.117188 -64.78125 27.046875 -64.78125 C 26.117188 -64.78125 24.46875 -64.710938 22.09375 -64.578125 Z M 22.09375 -38.828125 "/></g></g></g></g></g><g transform="matrix(1, 0, 0, 1, 500, 0)"><g clip-path="url(#111dbb0671)"><g fill="#bb5c5c" fill-opacity="0.4"><g transform="translate(5.221794, 94.355456)"><g><path d="M 25.546875 1.875 C 16.640625 1.875 9.742188 0.722656 4.859375 -1.578125 C 4.859375 -7.460938 5.710938 -13.207031 7.421875 -18.8125 C 7.554688 -18.8125 7.753906 -18.828125 8.015625 -18.859375 C 8.285156 -18.898438 8.519531 -18.921875 8.71875 -18.921875 C 9.90625 -18.921875 10.925781 -18.722656 11.78125 -18.328125 L 13.375 -5.15625 C 17.53125 -4.164062 21.09375 -3.671875 24.0625 -3.671875 C 26.375 -3.671875 28.75 -3.929688 31.1875 -4.453125 C 33.632812 -4.984375 35.765625 -6.070312 37.578125 -7.71875 C 39.398438 -9.375 40.3125 -11.617188 40.3125 -14.453125 C 40.3125 -17.035156 39.929688 -19.117188 39.171875 -20.703125 C 38.410156 -22.285156 36.660156 -24.015625 33.921875 -25.890625 C 31.179688 -27.773438 26.90625 -29.972656 21.09375 -32.484375 C 15.15625 -35.128906 10.976562 -37.953125 8.5625 -40.953125 C 6.15625 -43.960938 5.019531 -48.007812 5.15625 -53.09375 C 5.21875 -58.90625 7.65625 -63.328125 12.46875 -66.359375 C 17.289062 -69.398438 23.335938 -70.921875 30.609375 -70.921875 C 36.742188 -70.921875 42.351562 -69.929688 47.4375 -67.953125 C 47.632812 -62.929688 46.613281 -57.347656 44.375 -51.203125 C 44.113281 -51.140625 43.679688 -51.109375 43.078125 -51.109375 C 41.960938 -51.109375 40.941406 -51.304688 40.015625 -51.703125 L 38.921875 -64.875 C 35.953125 -65.726562 32.984375 -66.15625 30.015625 -66.15625 C 25.648438 -66.15625 22 -65.210938 19.0625 -63.328125 C 16.125 -61.453125 14.625 -58.597656 14.5625 -54.765625 C 14.488281 -51.734375 15.359375 -49.257812 17.171875 -47.34375 C 18.992188 -45.425781 22.84375 -43.148438 28.71875 -40.515625 C 33.007812 -38.597656 36.34375 -36.992188 38.71875 -35.703125 C 41.101562 -34.421875 43.269531 -32.90625 45.21875 -31.15625 C 47.164062 -29.40625 48.566406 -27.40625 49.421875 -25.15625 C 50.285156 -22.914062 50.71875 -20.273438 50.71875 -17.234375 C 50.582031 -11.085938 48.035156 -6.363281 43.078125 -3.0625 C 38.128906 0.226562 32.285156 1.875 25.546875 1.875 Z M 25.546875 1.875 "/></g></g></g><g fill="#bb5c5c" fill-opacity="0.4"><g transform="translate(59.197362, 94.355456)"><g><path d="M 25.453125 -4.953125 L 25.453125 -64.875 L 10 -64.875 L 7.125 -50.71875 C 5.539062 -50.445312 4.222656 -50.546875 3.171875 -51.015625 C 2.304688 -58.609375 1.972656 -64.710938 2.171875 -69.328125 L 60.125 -69.328125 C 60.320312 -64.046875 59.957031 -57.941406 59.03125 -51.015625 C 57.976562 -50.546875 56.65625 -50.445312 55.0625 -50.71875 L 52.203125 -64.875 L 35.859375 -64.875 L 35.859375 -4.953125 L 44.078125 -2.96875 C 44.273438 -1.71875 44.109375 -0.5625 43.578125 0.5 C 37.640625 0.164062 33.414062 0 30.90625 0 C 27.9375 0 23.410156 0.164062 17.328125 0.5 C 17.128906 -0.820312 17.195312 -1.976562 17.53125 -2.96875 C 20.101562 -3.300781 22.742188 -3.960938 25.453125 -4.953125 Z M 25.453125 -4.953125 "/></g></g></g><g fill="#f4edca" fill-opacity="1"><g transform="translate(0.844425, 89.978116)"><g><path d="M 25.546875 1.875 C 16.640625 1.875 9.742188 0.722656 4.859375 -1.578125 C 4.859375 -7.460938 5.710938 -13.207031 7.421875 -18.8125 C 7.554688 -18.8125 7.753906 -18.828125 8.015625 -18.859375 C 8.285156 -18.898438 8.519531 -18.921875 8.71875 -18.921875 C 9.90625 -18.921875 10.925781 -18.722656 11.78125 -18.328125 L 13.375 -5.15625 C 17.53125 -4.164062 21.09375 -3.671875 24.0625 -3.671875 C 26.375 -3.671875 28.75 -3.929688 31.1875 -4.453125 C 33.632812 -4.984375 35.765625 -6.070312 37.578125 -7.71875 C 39.398438 -9.375 40.3125 -11.617188 40.3125 -14.453125 C 40.3125 -17.035156 39.929688 -19.117188 39.171875 -20.703125 C 38.410156 -22.285156 36.660156 -24.015625 33.921875 -25.890625 C 31.179688 -27.773438 26.90625 -29.972656 21.09375 -32.484375 C 15.15625 -35.128906 10.976562 -37.953125 8.5625 -40.953125 C 6.15625 -43.960938 5.019531 -48.007812 5.15625 -53.09375 C 5.21875 -58.90625 7.65625 -63.328125 12.46875 -66.359375 C 17.289062 -69.398438 23.335938 -70.921875 30.609375 -70.921875 C 36.742188 -70.921875 42.351562 -69.929688 47.4375 -67.953125 C 47.632812 -62.929688 46.613281 -57.347656 44.375 -51.203125 C 44.113281 -51.140625 43.679688 -51.109375 43.078125 -51.109375 C 41.960938 -51.109375 40.941406 -51.304688 40.015625 -51.703125 L 38.921875 -64.875 C 35.953125 -65.726562 32.984375 -66.15625 30.015625 -66.15625 C 25.648438 -66.15625 22 -65.210938 19.0625 -63.328125 C 16.125 -61.453125 14.625 -58.597656 14.5625 -54.765625 C 14.488281 -51.734375 15.359375 -49.257812 17.171875 -47.34375 C 18.992188 -45.425781 22.84375 -43.148438 28.71875 -40.515625 C 33.007812 -38.597656 36.34375 -36.992188 38.71875 -35.703125 C 41.101562 -34.421875 43.269531 -32.90625 45.21875 -31.15625 C 47.164062 -29.40625 48.566406 -27.40625 49.421875 -25.15625 C 50.285156 -22.914062 50.71875 -20.273438 50.71875 -17.234375 C 50.582031 -11.085938 48.035156 -6.363281 43.078125 -3.0625 C 38.128906 0.226562 32.285156 1.875 25.546875 1.875 Z M 25.546875 1.875 "/></g></g></g><g fill="#f4edca" fill-opacity="1"><g transform="translate(54.819993, 89.978116)"><g><path d="M 25.453125 -4.953125 L 25.453125 -64.875 L 10 -64.875 L 7.125 -50.71875 C 5.539062 -50.445312 4.222656 -50.546875 3.171875 -51.015625 C 2.304688 -58.609375 1.972656 -64.710938 2.171875 -69.328125 L 60.125 -69.328125 C 60.320312 -64.046875 59.957031 -57.941406 59.03125 -51.015625 C 57.976562 -50.546875 56.65625 -50.445312 55.0625 -50.71875 L 52.203125 -64.875 L 35.859375 -64.875 L 35.859375 -4.953125 L 44.078125 -2.96875 C 44.273438 -1.71875 44.109375 -0.5625 43.578125 0.5 C 37.640625 0.164062 33.414062 0 30.90625 0 C 27.9375 0 23.410156 0.164062 17.328125 0.5 C 17.128906 -0.820312 17.195312 -1.976562 17.53125 -2.96875 C 20.101562 -3.300781 22.742188 -3.960938 25.453125 -4.953125 Z M 25.453125 -4.953125 "/></g></g></g></g></g><g transform="matrix(1, 0, 0, 1, 84, 117)"><g clip-path="url(#1f7406ecd8)"><g fill="#bb5c5c" fill-opacity="0.4"><g transform="translate(4.774328, 89.30581)"><g><path d="M 140.984375 -73.515625 C 140.128906 -73.179688 139.535156 -72.648438 139.203125 -71.921875 C 138.867188 -71.203125 138.703125 -70.476562 138.703125 -69.75 C 138.703125 -69.289062 138.703125 -67.820312 138.703125 -65.34375 C 138.703125 -62.875 138.6875 -59.773438 138.65625 -56.046875 C 138.625 -52.316406 138.609375 -48.257812 138.609375 -43.875 C 138.609375 -39.488281 138.609375 -35.101562 138.609375 -30.71875 C 138.609375 -26.332031 138.609375 -22.289062 138.609375 -18.59375 C 138.609375 -14.90625 138.609375 -11.835938 138.609375 -9.390625 C 138.609375 -6.953125 138.609375 -5.503906 138.609375 -5.046875 C 138.671875 -3.921875 138.800781 -2.992188 139 -2.265625 C 139.195312 -1.546875 139.925781 -1.054688 141.1875 -0.796875 C 141.644531 -0.660156 141.835938 -0.410156 141.765625 -0.046875 C 141.703125 0.316406 141.507812 0.5 141.1875 0.5 C 140.914062 0.5 140.15625 0.5 138.90625 0.5 C 137.65625 0.5 136.1875 0.5 134.5 0.5 C 132.820312 0.5 131.15625 0.5 129.5 0.5 C 127.851562 0.5 126.453125 0.5 125.296875 0.5 C 124.148438 0.5 123.539062 0.5 123.46875 0.5 C 123.007812 0.5 122.796875 0.300781 122.828125 -0.09375 C 122.859375 -0.488281 123.171875 -0.753906 123.765625 -0.890625 C 125.347656 -1.285156 126.207031 -1.925781 126.34375 -2.8125 C 126.476562 -3.707031 126.546875 -4.75 126.546875 -5.9375 C 126.546875 -6.332031 126.546875 -7.617188 126.546875 -9.796875 C 126.546875 -11.972656 126.546875 -14.675781 126.546875 -17.90625 C 126.546875 -21.132812 126.546875 -24.515625 126.546875 -28.046875 C 126.546875 -31.578125 126.546875 -34.890625 126.546875 -37.984375 C 126.546875 -41.085938 126.523438 -43.644531 126.484375 -45.65625 C 126.453125 -47.664062 126.4375 -48.738281 126.4375 -48.875 C 126.375 -49.070312 126.359375 -49.253906 126.390625 -49.421875 C 126.421875 -49.585938 126.335938 -49.734375 126.140625 -49.859375 C 125.679688 -50.128906 125.253906 -50 124.859375 -49.46875 C 124.398438 -48.9375 123.953125 -48.390625 123.515625 -47.828125 C 123.085938 -47.273438 122.675781 -46.703125 122.28125 -46.109375 C 121.757812 -45.378906 120.820312 -43.8125 119.46875 -41.40625 C 118.113281 -39 116.5625 -36.128906 114.8125 -32.796875 C 113.0625 -29.460938 111.3125 -26 109.5625 -22.40625 C 107.820312 -18.8125 106.257812 -15.378906 104.875 -12.109375 C 103.488281 -8.847656 102.5 -6.097656 101.90625 -3.859375 C 101.507812 -2.671875 101.113281 -1.644531 100.71875 -0.78125 C 100.320312 0.0703125 99.460938 0.5 98.140625 0.5 C 96.492188 0.5 95.273438 0.5 94.484375 0.5 C 93.691406 0.5 92.472656 0.5 90.828125 0.5 C 89.367188 0.5 88.328125 0.269531 87.703125 -0.1875 C 87.078125 -0.65625 86.632812 -1.21875 86.375 -1.875 C 86.113281 -2.539062 85.882812 -3.132812 85.6875 -3.65625 C 84.5 -5.96875 82.765625 -8.867188 80.484375 -12.359375 C 78.210938 -15.859375 75.507812 -19.601562 72.375 -23.59375 C 69.238281 -27.582031 65.804688 -31.519531 62.078125 -35.40625 C 58.359375 -39.300781 54.398438 -42.863281 50.203125 -46.09375 C 46.015625 -49.332031 41.742188 -51.925781 37.390625 -53.875 C 33.046875 -55.820312 28.726562 -56.828125 24.4375 -56.890625 C 22.457031 -57.285156 21.46875 -56.460938 21.46875 -54.421875 C 21.46875 -53.828125 21.453125 -52.304688 21.421875 -49.859375 C 21.390625 -47.421875 21.351562 -44.4375 21.3125 -40.90625 C 21.28125 -37.382812 21.25 -33.691406 21.21875 -29.828125 C 21.1875 -25.972656 21.15625 -22.296875 21.125 -18.796875 C 21.09375 -15.296875 21.078125 -12.34375 21.078125 -9.9375 C 21.078125 -7.53125 21.078125 -6.097656 21.078125 -5.640625 C 21.078125 -4.648438 21.375 -3.660156 21.96875 -2.671875 C 22.5625 -1.679688 23.21875 -1.054688 23.9375 -0.796875 C 24.269531 -0.660156 24.46875 -0.410156 24.53125 -0.046875 C 24.601562 0.316406 24.34375 0.5 23.75 0.5 C 22.820312 0.5 21.5 0.5 19.78125 0.5 C 18.070312 0.5 16.273438 0.5 14.390625 0.5 C 12.515625 0.5 10.832031 0.5 9.34375 0.5 C 7.863281 0.5 6.859375 0.5 6.328125 0.5 C 6.003906 0.5625 5.773438 0.363281 5.640625 -0.09375 C 5.503906 -0.363281 5.566406 -0.5625 5.828125 -0.6875 C 6.097656 -0.820312 6.300781 -0.957031 6.4375 -1.09375 C 7.75 -1.6875 8.550781 -2.492188 8.84375 -3.515625 C 9.144531 -4.535156 9.296875 -5.707031 9.296875 -7.03125 C 9.296875 -7.425781 9.296875 -8.828125 9.296875 -11.234375 C 9.296875 -13.640625 9.3125 -16.6875 9.34375 -20.375 C 9.382812 -24.070312 9.40625 -28.0625 9.40625 -32.34375 C 9.40625 -36.632812 9.382812 -40.941406 9.34375 -45.265625 C 9.3125 -49.585938 9.28125 -53.578125 9.25 -57.234375 C 9.21875 -60.890625 9.1875 -63.921875 9.15625 -66.328125 C 9.125 -68.742188 9.070312 -70.179688 9 -70.640625 C 8.875 -72.023438 8.117188 -73.082031 6.734375 -73.8125 C 6.203125 -74.070312 6 -74.347656 6.125 -74.640625 C 6.257812 -74.941406 6.425781 -75.09375 6.625 -75.09375 C 7.8125 -75.09375 9.34375 -75.09375 11.21875 -75.09375 C 13.101562 -75.09375 15 -75.09375 16.90625 -75.09375 C 18.820312 -75.09375 20.472656 -75.09375 21.859375 -75.09375 C 23.242188 -75.09375 24.035156 -75.09375 24.234375 -75.09375 C 24.703125 -75.09375 24.9375 -74.941406 24.9375 -74.640625 C 24.9375 -74.347656 24.703125 -74.132812 24.234375 -74 C 23.835938 -73.875 23.390625 -73.613281 22.890625 -73.21875 C 22.398438 -72.820312 22.191406 -72.523438 22.265625 -72.328125 C 22.265625 -72.128906 22.378906 -72.03125 22.609375 -72.03125 C 22.835938 -72.03125 23.019531 -71.992188 23.15625 -71.921875 C 29.414062 -71.128906 35.414062 -69.414062 41.15625 -66.78125 C 46.894531 -64.144531 52.300781 -61.007812 57.375 -57.375 C 62.457031 -53.75 67.078125 -49.988281 71.234375 -46.09375 C 75.390625 -42.207031 79 -38.515625 82.0625 -35.015625 C 85.132812 -31.523438 87.578125 -28.609375 89.390625 -26.265625 C 91.203125 -23.921875 92.238281 -22.519531 92.5 -22.0625 C 93.03125 -21.269531 93.507812 -20.890625 93.9375 -20.921875 C 94.363281 -20.953125 94.84375 -21.332031 95.375 -22.0625 C 95.832031 -22.59375 96.601562 -24.023438 97.6875 -26.359375 C 98.78125 -28.703125 100.164062 -31.640625 101.84375 -35.171875 C 103.53125 -38.703125 105.507812 -42.492188 107.78125 -46.546875 C 110.0625 -50.609375 112.632812 -54.679688 115.5 -58.765625 C 118.375 -62.859375 121.523438 -66.585938 124.953125 -69.953125 C 125.546875 -70.410156 125.828125 -71.050781 125.796875 -71.875 C 125.765625 -72.695312 125.054688 -73.304688 123.671875 -73.703125 C 123.140625 -73.773438 122.890625 -74.023438 122.921875 -74.453125 C 122.960938 -74.878906 123.210938 -75.09375 123.671875 -75.09375 C 124.003906 -75.09375 124.796875 -75.09375 126.046875 -75.09375 C 127.296875 -75.09375 128.78125 -75.09375 130.5 -75.09375 C 132.21875 -75.09375 133.898438 -75.09375 135.546875 -75.09375 C 137.191406 -75.09375 138.570312 -75.09375 139.6875 -75.09375 C 140.8125 -75.09375 141.441406 -75.09375 141.578125 -75.09375 C 141.972656 -75.09375 142.171875 -74.894531 142.171875 -74.5 C 142.171875 -74.101562 141.773438 -73.773438 140.984375 -73.515625 Z M 140.984375 -73.515625 "/></g></g></g><g fill="#f4edca" fill-opacity="1"><g transform="translate(0.401422, 84.932904)"><g><path d="M 140.984375 -73.515625 C 140.128906 -73.179688 139.535156 -72.648438 139.203125 -71.921875 C 138.867188 -71.203125 138.703125 -70.476562 138.703125 -69.75 C 138.703125 -69.289062 138.703125 -67.820312 138.703125 -65.34375 C 138.703125 -62.875 138.6875 -59.773438 138.65625 -56.046875 C 138.625 -52.316406 138.609375 -48.257812 138.609375 -43.875 C 138.609375 -39.488281 138.609375 -35.101562 138.609375 -30.71875 C 138.609375 -26.332031 138.609375 -22.289062 138.609375 -18.59375 C 138.609375 -14.90625 138.609375 -11.835938 138.609375 -9.390625 C 138.609375 -6.953125 138.609375 -5.503906 138.609375 -5.046875 C 138.671875 -3.921875 138.800781 -2.992188 139 -2.265625 C 139.195312 -1.546875 139.925781 -1.054688 141.1875 -0.796875 C 141.644531 -0.660156 141.835938 -0.410156 141.765625 -0.046875 C 141.703125 0.316406 141.507812 0.5 141.1875 0.5 C 140.914062 0.5 140.15625 0.5 138.90625 0.5 C 137.65625 0.5 136.1875 0.5 134.5 0.5 C 132.820312 0.5 131.15625 0.5 129.5 0.5 C 127.851562 0.5 126.453125 0.5 125.296875 0.5 C 124.148438 0.5 123.539062 0.5 123.46875 0.5 C 123.007812 0.5 122.796875 0.300781 122.828125 -0.09375 C 122.859375 -0.488281 123.171875 -0.753906 123.765625 -0.890625 C 125.347656 -1.285156 126.207031 -1.925781 126.34375 -2.8125 C 126.476562 -3.707031 126.546875 -4.75 126.546875 -5.9375 C 126.546875 -6.332031 126.546875 -7.617188 126.546875 -9.796875 C 126.546875 -11.972656 126.546875 -14.675781 126.546875 -17.90625 C 126.546875 -21.132812 126.546875 -24.515625 126.546875 -28.046875 C 126.546875 -31.578125 126.546875 -34.890625 126.546875 -37.984375 C 126.546875 -41.085938 126.523438 -43.644531 126.484375 -45.65625 C 126.453125 -47.664062 126.4375 -48.738281 126.4375 -48.875 C 126.375 -49.070312 126.359375 -49.253906 126.390625 -49.421875 C 126.421875 -49.585938 126.335938 -49.734375 126.140625 -49.859375 C 125.679688 -50.128906 125.253906 -50 124.859375 -49.46875 C 124.398438 -48.9375 123.953125 -48.390625 123.515625 -47.828125 C 123.085938 -47.273438 122.675781 -46.703125 122.28125 -46.109375 C 121.757812 -45.378906 120.820312 -43.8125 119.46875 -41.40625 C 118.113281 -39 116.5625 -36.128906 114.8125 -32.796875 C 113.0625 -29.460938 111.3125 -26 109.5625 -22.40625 C 107.820312 -18.8125 106.257812 -15.378906 104.875 -12.109375 C 103.488281 -8.847656 102.5 -6.097656 101.90625 -3.859375 C 101.507812 -2.671875 101.113281 -1.644531 100.71875 -0.78125 C 100.320312 0.0703125 99.460938 0.5 98.140625 0.5 C 96.492188 0.5 95.273438 0.5 94.484375 0.5 C 93.691406 0.5 92.472656 0.5 90.828125 0.5 C 89.367188 0.5 88.328125 0.269531 87.703125 -0.1875 C 87.078125 -0.65625 86.632812 -1.21875 86.375 -1.875 C 86.113281 -2.539062 85.882812 -3.132812 85.6875 -3.65625 C 84.5 -5.96875 82.765625 -8.867188 80.484375 -12.359375 C 78.210938 -15.859375 75.507812 -19.601562 72.375 -23.59375 C 69.238281 -27.582031 65.804688 -31.519531 62.078125 -35.40625 C 58.359375 -39.300781 54.398438 -42.863281 50.203125 -46.09375 C 46.015625 -49.332031 41.742188 -51.925781 37.390625 -53.875 C 33.046875 -55.820312 28.726562 -56.828125 24.4375 -56.890625 C 22.457031 -57.285156 21.46875 -56.460938 21.46875 -54.421875 C 21.46875 -53.828125 21.453125 -52.304688 21.421875 -49.859375 C 21.390625 -47.421875 21.351562 -44.4375 21.3125 -40.90625 C 21.28125 -37.382812 21.25 -33.691406 21.21875 -29.828125 C 21.1875 -25.972656 21.15625 -22.296875 21.125 -18.796875 C 21.09375 -15.296875 21.078125 -12.34375 21.078125 -9.9375 C 21.078125 -7.53125 21.078125 -6.097656 21.078125 -5.640625 C 21.078125 -4.648438 21.375 -3.660156 21.96875 -2.671875 C 22.5625 -1.679688 23.21875 -1.054688 23.9375 -0.796875 C 24.269531 -0.660156 24.46875 -0.410156 24.53125 -0.046875 C 24.601562 0.316406 24.34375 0.5 23.75 0.5 C 22.820312 0.5 21.5 0.5 19.78125 0.5 C 18.070312 0.5 16.273438 0.5 14.390625 0.5 C 12.515625 0.5 10.832031 0.5 9.34375 0.5 C 7.863281 0.5 6.859375 0.5 6.328125 0.5 C 6.003906 0.5625 5.773438 0.363281 5.640625 -0.09375 C 5.503906 -0.363281 5.566406 -0.5625 5.828125 -0.6875 C 6.097656 -0.820312 6.300781 -0.957031 6.4375 -1.09375 C 7.75 -1.6875 8.550781 -2.492188 8.84375 -3.515625 C 9.144531 -4.535156 9.296875 -5.707031 9.296875 -7.03125 C 9.296875 -7.425781 9.296875 -8.828125 9.296875 -11.234375 C 9.296875 -13.640625 9.3125 -16.6875 9.34375 -20.375 C 9.382812 -24.070312 9.40625 -28.0625 9.40625 -32.34375 C 9.40625 -36.632812 9.382812 -40.941406 9.34375 -45.265625 C 9.3125 -49.585938 9.28125 -53.578125 9.25 -57.234375 C 9.21875 -60.890625 9.1875 -63.921875 9.15625 -66.328125 C 9.125 -68.742188 9.070312 -70.179688 9 -70.640625 C 8.875 -72.023438 8.117188 -73.082031 6.734375 -73.8125 C 6.203125 -74.070312 6 -74.347656 6.125 -74.640625 C 6.257812 -74.941406 6.425781 -75.09375 6.625 -75.09375 C 7.8125 -75.09375 9.34375 -75.09375 11.21875 -75.09375 C 13.101562 -75.09375 15 -75.09375 16.90625 -75.09375 C 18.820312 -75.09375 20.472656 -75.09375 21.859375 -75.09375 C 23.242188 -75.09375 24.035156 -75.09375 24.234375 -75.09375 C 24.703125 -75.09375 24.9375 -74.941406 24.9375 -74.640625 C 24.9375 -74.347656 24.703125 -74.132812 24.234375 -74 C 23.835938 -73.875 23.390625 -73.613281 22.890625 -73.21875 C 22.398438 -72.820312 22.191406 -72.523438 22.265625 -72.328125 C 22.265625 -72.128906 22.378906 -72.03125 22.609375 -72.03125 C 22.835938 -72.03125 23.019531 -71.992188 23.15625 -71.921875 C 29.414062 -71.128906 35.414062 -69.414062 41.15625 -66.78125 C 46.894531 -64.144531 52.300781 -61.007812 57.375 -57.375 C 62.457031 -53.75 67.078125 -49.988281 71.234375 -46.09375 C 75.390625 -42.207031 79 -38.515625 82.0625 -35.015625 C 85.132812 -31.523438 87.578125 -28.609375 89.390625 -26.265625 C 91.203125 -23.921875 92.238281 -22.519531 92.5 -22.0625 C 93.03125 -21.269531 93.507812 -20.890625 93.9375 -20.921875 C 94.363281 -20.953125 94.84375 -21.332031 95.375 -22.0625 C 95.832031 -22.59375 96.601562 -24.023438 97.6875 -26.359375 C 98.78125 -28.703125 100.164062 -31.640625 101.84375 -35.171875 C 103.53125 -38.703125 105.507812 -42.492188 107.78125 -46.546875 C 110.0625 -50.609375 112.632812 -54.679688 115.5 -58.765625 C 118.375 -62.859375 121.523438 -66.585938 124.953125 -69.953125 C 125.546875 -70.410156 125.828125 -71.050781 125.796875 -71.875 C 125.765625 -72.695312 125.054688 -73.304688 123.671875 -73.703125 C 123.140625 -73.773438 122.890625 -74.023438 122.921875 -74.453125 C 122.960938 -74.878906 123.210938 -75.09375 123.671875 -75.09375 C 124.003906 -75.09375 124.796875 -75.09375 126.046875 -75.09375 C 127.296875 -75.09375 128.78125 -75.09375 130.5 -75.09375 C 132.21875 -75.09375 133.898438 -75.09375 135.546875 -75.09375 C 137.191406 -75.09375 138.570312 -75.09375 139.6875 -75.09375 C 140.8125 -75.09375 141.441406 -75.09375 141.578125 -75.09375 C 141.972656 -75.09375 142.171875 -74.894531 142.171875 -74.5 C 142.171875 -74.101562 141.773438 -73.773438 140.984375 -73.515625 Z M 140.984375 -73.515625 "/></g></g></g></g></g><g transform="matrix(1, 0, 0, 1, 233, 100)"><g clip-path="url(#174807b286)"><g fill="#bb5c5c" fill-opacity="0.4"><g transform="translate(6.739124, 120.277903)"><g><path d="M 5.109375 -40.78125 C 5.109375 -53.644531 8.710938 -64.007812 15.921875 -71.875 C 23.128906 -79.738281 32.347656 -83.671875 43.578125 -83.671875 C 55.046875 -83.671875 64.378906 -79.695312 71.578125 -71.75 C 78.785156 -63.8125 82.390625 -53.488281 82.390625 -40.78125 C 82.390625 -27.84375 78.820312 -17.421875 71.6875 -9.515625 C 64.5625 -1.617188 55.191406 2.328125 43.578125 2.328125 C 31.878906 2.328125 22.539062 -1.617188 15.5625 -9.515625 C 8.59375 -17.421875 5.109375 -27.84375 5.109375 -40.78125 Z M 69.03125 -41.59375 C 69.03125 -47.875 68.078125 -53.742188 66.171875 -59.203125 C 64.273438 -64.660156 61.3125 -69.210938 57.28125 -72.859375 C 53.257812 -76.503906 48.578125 -78.328125 43.234375 -78.328125 C 38.890625 -78.328125 35.085938 -77.257812 31.828125 -75.125 C 28.578125 -73 26.003906 -70.09375 24.109375 -66.40625 C 22.210938 -62.726562 20.796875 -58.660156 19.859375 -54.203125 C 18.929688 -49.753906 18.46875 -44.929688 18.46875 -39.734375 C 18.46875 -29.273438 20.847656 -20.539062 25.609375 -13.53125 C 30.378906 -6.519531 36.796875 -3.015625 44.859375 -3.015625 C 52.753906 -3.015625 58.753906 -6.675781 62.859375 -14 C 66.972656 -21.320312 69.03125 -30.519531 69.03125 -41.59375 Z M 69.03125 -41.59375 "/></g></g></g><g fill="#bb5c5c" fill-opacity="0.4"><g transform="translate(93.185219, 120.277903)"><g><path d="M 57.515625 -30.796875 L 76.46875 -79.015625 L 76.46875 -81.34375 L 83.4375 -81.34375 C 86.914062 -81.34375 92.222656 -81.535156 99.359375 -81.921875 C 99.585938 -80.453125 99.507812 -79.097656 99.125 -77.859375 C 94.863281 -77.160156 91.765625 -76.382812 89.828125 -75.53125 L 95.640625 -5.8125 L 104.578125 -3.484375 C 104.816406 -2.015625 104.625 -0.660156 104 0.578125 C 97.03125 0.191406 92.304688 0 89.828125 0 C 86.421875 0 81.113281 0.191406 73.90625 0.578125 C 73.675781 -0.972656 73.753906 -2.328125 74.140625 -3.484375 C 79.253906 -4.179688 82.351562 -4.957031 83.4375 -5.8125 L 78.546875 -56.703125 C 78.398438 -58.179688 78.328125 -60.351562 78.328125 -63.21875 C 78.328125 -65.613281 78.363281 -67.394531 78.4375 -68.5625 L 78.09375 -68.5625 C 76.851562 -63.914062 75.613281 -59.960938 74.375 -56.703125 L 53.34375 -3.609375 C 51.789062 -2.753906 50.394531 -2.363281 49.15625 -2.4375 L 26.265625 -56.703125 C 25.253906 -59.109375 23.972656 -63.0625 22.421875 -68.5625 L 22.078125 -68.5625 L 21.734375 -56.59375 L 18.828125 -5.6875 L 27.765625 -3.375 C 28.003906 -1.894531 27.8125 -0.535156 27.1875 0.703125 C 26.257812 0.617188 24.984375 0.519531 23.359375 0.40625 C 21.734375 0.289062 20.238281 0.191406 18.875 0.109375 C 17.519531 0.0351562 16.222656 0 14.984375 0 C 12.359375 0 8.21875 0.191406 2.5625 0.578125 C 2.320312 -0.890625 2.394531 -2.242188 2.78125 -3.484375 C 6.195312 -3.953125 9.222656 -4.726562 11.859375 -5.8125 L 16.5 -75.53125 L 7.546875 -77.859375 C 7.316406 -79.328125 7.515625 -80.679688 8.140625 -81.921875 C 15.109375 -81.535156 19.832031 -81.34375 22.3125 -81.34375 L 29.859375 -81.34375 L 29.859375 -79.015625 L 48.8125 -30.796875 C 50.195312 -27.535156 51.585938 -22.960938 52.984375 -17.078125 L 53.21875 -17.078125 C 54.613281 -22.421875 56.046875 -26.992188 57.515625 -30.796875 Z M 57.515625 -30.796875 "/></g></g></g><g fill="#f4edca" fill-opacity="1"><g transform="translate(1.603628, 115.142407)"><g><path d="M 5.109375 -40.78125 C 5.109375 -53.644531 8.710938 -64.007812 15.921875 -71.875 C 23.128906 -79.738281 32.347656 -83.671875 43.578125 -83.671875 C 55.046875 -83.671875 64.378906 -79.695312 71.578125 -71.75 C 78.785156 -63.8125 82.390625 -53.488281 82.390625 -40.78125 C 82.390625 -27.84375 78.820312 -17.421875 71.6875 -9.515625 C 64.5625 -1.617188 55.191406 2.328125 43.578125 2.328125 C 31.878906 2.328125 22.539062 -1.617188 15.5625 -9.515625 C 8.59375 -17.421875 5.109375 -27.84375 5.109375 -40.78125 Z M 69.03125 -41.59375 C 69.03125 -47.875 68.078125 -53.742188 66.171875 -59.203125 C 64.273438 -64.660156 61.3125 -69.210938 57.28125 -72.859375 C 53.257812 -76.503906 48.578125 -78.328125 43.234375 -78.328125 C 38.890625 -78.328125 35.085938 -77.257812 31.828125 -75.125 C 28.578125 -73 26.003906 -70.09375 24.109375 -66.40625 C 22.210938 -62.726562 20.796875 -58.660156 19.859375 -54.203125 C 18.929688 -49.753906 18.46875 -44.929688 18.46875 -39.734375 C 18.46875 -29.273438 20.847656 -20.539062 25.609375 -13.53125 C 30.378906 -6.519531 36.796875 -3.015625 44.859375 -3.015625 C 52.753906 -3.015625 58.753906 -6.675781 62.859375 -14 C 66.972656 -21.320312 69.03125 -30.519531 69.03125 -41.59375 Z M 69.03125 -41.59375 "/></g></g></g><g fill="#f4edca" fill-opacity="1"><g transform="translate(88.049723, 115.142407)"><g><path d="M 57.515625 -30.796875 L 76.46875 -79.015625 L 76.46875 -81.34375 L 83.4375 -81.34375 C 86.914062 -81.34375 92.222656 -81.535156 99.359375 -81.921875 C 99.585938 -80.453125 99.507812 -79.097656 99.125 -77.859375 C 94.863281 -77.160156 91.765625 -76.382812 89.828125 -75.53125 L 95.640625 -5.8125 L 104.578125 -3.484375 C 104.816406 -2.015625 104.625 -0.660156 104 0.578125 C 97.03125 0.191406 92.304688 0 89.828125 0 C 86.421875 0 81.113281 0.191406 73.90625 0.578125 C 73.675781 -0.972656 73.753906 -2.328125 74.140625 -3.484375 C 79.253906 -4.179688 82.351562 -4.957031 83.4375 -5.8125 L 78.546875 -56.703125 C 78.398438 -58.179688 78.328125 -60.351562 78.328125 -63.21875 C 78.328125 -65.613281 78.363281 -67.394531 78.4375 -68.5625 L 78.09375 -68.5625 C 76.851562 -63.914062 75.613281 -59.960938 74.375 -56.703125 L 53.34375 -3.609375 C 51.789062 -2.753906 50.394531 -2.363281 49.15625 -2.4375 L 26.265625 -56.703125 C 25.253906 -59.109375 23.972656 -63.0625 22.421875 -68.5625 L 22.078125 -68.5625 L 21.734375 -56.59375 L 18.828125 -5.6875 L 27.765625 -3.375 C 28.003906 -1.894531 27.8125 -0.535156 27.1875 0.703125 C 26.257812 0.617188 24.984375 0.519531 23.359375 0.40625 C 21.734375 0.289062 20.238281 0.191406 18.875 0.109375 C 17.519531 0.0351562 16.222656 0 14.984375 0 C 12.359375 0 8.21875 0.191406 2.5625 0.578125 C 2.320312 -0.890625 2.394531 -2.242188 2.78125 -3.484375 C 6.195312 -3.953125 9.222656 -4.726562 11.859375 -5.8125 L 16.5 -75.53125 L 7.546875 -77.859375 C 7.316406 -79.328125 7.515625 -80.679688 8.140625 -81.921875 C 15.109375 -81.535156 19.832031 -81.34375 22.3125 -81.34375 L 29.859375 -81.34375 L 29.859375 -79.015625 L 48.8125 -30.796875 C 50.195312 -27.535156 51.585938 -22.960938 52.984375 -17.078125 L 53.21875 -17.078125 C 54.613281 -22.421875 56.046875 -26.992188 57.515625 -30.796875 Z M 57.515625 -30.796875 "/></g></g></g></g></g><g transform="matrix(1, 0, 0, 1, 428, 117)"><g clip-path="url(#93673cad5a)"><g fill="#bb5c5c" fill-opacity="0.4"><g transform="translate(4.933933, 89.30581)"><g><path d="M 138.40625 -15.734375 C 138.40625 -15.335938 138.40625 -14.507812 138.40625 -13.25 C 138.40625 -12 138.390625 -10.582031 138.359375 -9 C 138.328125 -7.414062 138.3125 -5.898438 138.3125 -4.453125 C 138.3125 -3.003906 138.3125 -1.882812 138.3125 -1.09375 C 138.3125 -0.03125 137.785156 0.5 136.734375 0.5 C 136.335938 0.5 134.554688 0.5 131.390625 0.5 C 128.222656 0.5 124.050781 0.5 118.875 0.5 C 113.695312 0.5 107.875 0.5 101.40625 0.5 C 94.945312 0.5 88.171875 0.5 81.078125 0.5 C 73.984375 0.5 66.972656 0.5 60.046875 0.5 C 53.128906 0.5 46.601562 0.5 40.46875 0.5 C 34.332031 0.5 28.988281 0.5 24.4375 0.5 C 24.375 0.5 24.242188 0.5 24.046875 0.5 L 5.640625 0.5 C 5.046875 0.5 4.78125 0.347656 4.84375 0.046875 C 4.914062 -0.242188 5.179688 -0.457031 5.640625 -0.59375 C 6.828125 -0.851562 7.617188 -1.363281 8.015625 -2.125 C 8.410156 -2.882812 8.609375 -3.722656 8.609375 -4.640625 C 8.609375 -5.566406 8.609375 -6.460938 8.609375 -7.328125 C 8.609375 -7.648438 8.609375 -8.800781 8.609375 -10.78125 C 8.609375 -12.757812 8.609375 -15.265625 8.609375 -18.296875 C 8.609375 -21.335938 8.609375 -24.671875 8.609375 -28.296875 L 8.609375 -69.453125 C 8.546875 -70.304688 8.394531 -71.0625 8.15625 -71.71875 C 7.925781 -72.382812 7.285156 -72.945312 6.234375 -73.40625 C 5.703125 -73.601562 5.453125 -73.867188 5.484375 -74.203125 C 5.523438 -74.535156 5.84375 -74.703125 6.4375 -74.703125 L 23.9375 -74.703125 C 24.070312 -74.703125 24.207031 -74.664062 24.34375 -74.59375 C 28.894531 -74.59375 34.21875 -74.59375 40.3125 -74.59375 C 46.414062 -74.59375 52.945312 -74.59375 59.90625 -74.59375 C 66.863281 -74.59375 73.867188 -74.59375 80.921875 -74.59375 C 87.984375 -74.59375 94.765625 -74.59375 101.265625 -74.59375 C 107.765625 -74.59375 113.601562 -74.59375 118.78125 -74.59375 C 123.957031 -74.59375 128.128906 -74.609375 131.296875 -74.640625 C 134.460938 -74.679688 136.238281 -74.703125 136.625 -74.703125 C 137.6875 -74.703125 138.21875 -74.140625 138.21875 -73.015625 C 138.21875 -72.222656 138.21875 -71.097656 138.21875 -69.640625 C 138.21875 -68.191406 138.21875 -66.675781 138.21875 -65.09375 C 138.21875 -63.507812 138.21875 -62.09375 138.21875 -60.84375 C 138.21875 -59.59375 138.21875 -58.769531 138.21875 -58.375 C 138.21875 -58.113281 138.082031 -57.984375 137.8125 -57.984375 C 137.550781 -57.984375 137.390625 -58.144531 137.328125 -58.46875 C 137.128906 -60.125 136.519531 -61.164062 135.5 -61.59375 C 134.476562 -62.019531 133.304688 -62.234375 131.984375 -62.234375 C 130.929688 -62.234375 129.082031 -62.234375 126.4375 -62.234375 C 123.800781 -62.234375 120.863281 -62.234375 117.625 -62.234375 C 114.394531 -62.234375 111.429688 -62.234375 108.734375 -62.234375 L 108.734375 -62.328125 L 78.859375 -62.328125 C 76.285156 -62.328125 73.195312 -62.328125 69.59375 -62.328125 C 66 -62.328125 62.140625 -62.328125 58.015625 -62.328125 C 53.898438 -62.328125 49.75 -62.328125 45.5625 -62.328125 C 41.375 -62.328125 37.363281 -62.328125 33.53125 -62.328125 C 29.707031 -62.328125 26.378906 -62.328125 23.546875 -62.328125 C 22.816406 -62.328125 22.222656 -62.078125 21.765625 -61.578125 C 21.304688 -61.085938 21.078125 -60.515625 21.078125 -59.859375 C 21.078125 -57.679688 21.054688 -55.140625 21.015625 -52.234375 C 20.984375 -49.335938 20.96875 -46.304688 20.96875 -43.140625 C 20.96875 -42.410156 21.210938 -41.8125 21.703125 -41.34375 C 22.203125 -40.882812 22.816406 -40.65625 23.546875 -40.65625 C 26.773438 -40.65625 29.820312 -40.65625 32.6875 -40.65625 C 35.5625 -40.65625 38.054688 -40.65625 40.171875 -40.65625 L 70.140625 -40.65625 L 70.140625 -40.765625 C 72.847656 -40.765625 75.816406 -40.742188 79.046875 -40.703125 C 82.285156 -40.671875 85.222656 -40.671875 87.859375 -40.703125 C 90.492188 -40.742188 92.335938 -40.765625 93.390625 -40.765625 C 94.710938 -40.765625 95.882812 -40.976562 96.90625 -41.40625 C 97.925781 -41.832031 98.535156 -42.867188 98.734375 -44.515625 C 98.734375 -44.847656 98.878906 -45.015625 99.171875 -45.015625 C 99.472656 -45.015625 99.625 -44.847656 99.625 -44.515625 C 99.625 -44.191406 99.625 -43.515625 99.625 -42.484375 C 99.625 -41.460938 99.625 -40.296875 99.625 -38.984375 C 99.625 -38.910156 99.625 -38.875 99.625 -38.875 C 99.625 -38.351562 99.625 -37.710938 99.625 -36.953125 C 99.625 -36.191406 99.625 -35.351562 99.625 -34.4375 C 99.625 -33.570312 99.625 -32.757812 99.625 -32 C 99.625 -31.25 99.625 -30.609375 99.625 -30.078125 L 99.625 -29.875 C 99.625 -28.625 99.625 -27.488281 99.625 -26.46875 C 99.625 -25.445312 99.625 -24.738281 99.625 -24.34375 C 99.625 -24.070312 99.472656 -23.9375 99.171875 -23.9375 C 98.878906 -23.9375 98.734375 -24.101562 98.734375 -24.4375 C 98.535156 -26.082031 97.925781 -27.117188 96.90625 -27.546875 C 95.882812 -27.984375 94.710938 -28.203125 93.390625 -28.203125 C 92.335938 -28.203125 90.492188 -28.203125 87.859375 -28.203125 C 85.222656 -28.203125 82.285156 -28.203125 79.046875 -28.203125 C 75.816406 -28.203125 72.847656 -28.203125 70.140625 -28.203125 L 70.140625 -28.296875 L 40.171875 -28.296875 C 38.054688 -28.296875 35.5625 -28.296875 32.6875 -28.296875 C 29.820312 -28.296875 26.773438 -28.296875 23.546875 -28.296875 C 22.816406 -28.296875 22.203125 -28.046875 21.703125 -27.546875 C 21.210938 -27.054688 20.96875 -26.484375 20.96875 -25.828125 L 20.96875 -21.375 C 20.96875 -20.050781 20.96875 -18.796875 20.96875 -17.609375 C 20.96875 -16.421875 21.003906 -15.300781 21.078125 -14.25 C 21.078125 -13.582031 21.304688 -13.019531 21.765625 -12.5625 C 22.222656 -12.101562 22.785156 -11.875 23.453125 -11.875 C 26.347656 -11.875 29.707031 -11.859375 33.53125 -11.828125 C 37.363281 -11.796875 41.390625 -11.78125 45.609375 -11.78125 C 49.828125 -11.78125 54 -11.78125 58.125 -11.78125 C 62.25 -11.78125 66.109375 -11.796875 69.703125 -11.828125 C 73.296875 -11.859375 76.378906 -11.875 78.953125 -11.875 L 108.828125 -11.875 C 111.597656 -11.875 114.582031 -11.875 117.78125 -11.875 C 120.976562 -11.875 123.910156 -11.875 126.578125 -11.875 C 129.253906 -11.875 131.125 -11.875 132.1875 -11.875 C 133.4375 -11.875 134.570312 -12.101562 135.59375 -12.5625 C 136.613281 -13.019531 137.253906 -14.039062 137.515625 -15.625 C 137.515625 -16.019531 137.660156 -16.21875 137.953125 -16.21875 C 138.253906 -16.21875 138.40625 -16.054688 138.40625 -15.734375 Z M 138.40625 -15.734375 "/></g></g></g><g fill="#bb5c5c" fill-opacity="0.4"><g transform="translate(148.592702, 89.30581)"><g><path d="M 121.09375 -73.90625 C 120.175781 -73.570312 119.566406 -73.039062 119.265625 -72.3125 C 118.972656 -71.59375 118.828125 -70.867188 118.828125 -70.140625 C 118.828125 -69.617188 118.804688 -68.132812 118.765625 -65.6875 C 118.734375 -63.25 118.71875 -60.148438 118.71875 -56.390625 C 118.71875 -52.628906 118.71875 -48.570312 118.71875 -44.21875 C 118.71875 -39.863281 118.71875 -35.492188 118.71875 -31.109375 C 118.71875 -26.722656 118.71875 -22.664062 118.71875 -18.9375 C 118.71875 -15.21875 118.71875 -12.15625 118.71875 -9.75 C 118.71875 -7.34375 118.71875 -5.90625 118.71875 -5.4375 C 118.71875 -4.25 118.832031 -3.304688 119.0625 -2.609375 C 119.300781 -1.921875 120.046875 -1.445312 121.296875 -1.1875 C 121.753906 -1.050781 121.953125 -0.785156 121.890625 -0.390625 C 121.828125 0.00390625 121.628906 0.203125 121.296875 0.203125 L 103.484375 0.203125 C 103.085938 0.203125 102.890625 -0.0078125 102.890625 -0.4375 C 102.890625 -0.875 103.1875 -1.15625 103.78125 -1.28125 C 103.914062 -1.28125 104.050781 -1.316406 104.1875 -1.390625 C 104.78125 -1.585938 105.191406 -1.984375 105.421875 -2.578125 C 105.648438 -3.171875 105.566406 -3.726562 105.171875 -4.25 C 103.253906 -6.957031 100.484375 -10.125 96.859375 -13.75 C 93.234375 -17.375 89.046875 -21.164062 84.296875 -25.125 C 79.546875 -29.082031 74.484375 -32.957031 69.109375 -36.75 C 63.734375 -40.539062 58.304688 -43.96875 52.828125 -47.03125 C 47.359375 -50.101562 42.097656 -52.5625 37.046875 -54.40625 C 32.003906 -56.257812 27.472656 -57.21875 23.453125 -57.28125 C 21.472656 -57.613281 20.484375 -56.789062 20.484375 -54.8125 C 20.484375 -54.21875 20.460938 -52.695312 20.421875 -50.25 C 20.390625 -47.8125 20.359375 -44.828125 20.328125 -41.296875 C 20.296875 -37.773438 20.242188 -34.082031 20.171875 -30.21875 C 20.109375 -26.363281 20.0625 -22.6875 20.03125 -19.1875 C 20 -15.695312 19.984375 -12.75 19.984375 -10.34375 C 19.984375 -7.9375 19.984375 -6.46875 19.984375 -5.9375 C 20.046875 -5.007812 20.359375 -4.050781 20.921875 -3.0625 C 21.484375 -2.070312 22.128906 -1.414062 22.859375 -1.09375 C 23.253906 -0.957031 23.46875 -0.707031 23.5 -0.34375 C 23.53125 0.0195312 23.25 0.203125 22.65625 0.203125 C 21.726562 0.203125 20.40625 0.179688 18.6875 0.140625 C 16.976562 0.109375 15.179688 0.09375 13.296875 0.09375 C 11.421875 0.09375 9.738281 0.09375 8.25 0.09375 C 6.769531 0.09375 5.800781 0.128906 5.34375 0.203125 C 5.007812 0.203125 4.742188 -0.03125 4.546875 -0.5 C 4.484375 -0.757812 4.566406 -0.953125 4.796875 -1.078125 C 5.023438 -1.210938 5.238281 -1.316406 5.4375 -1.390625 C 6.757812 -2.046875 7.550781 -2.882812 7.8125 -3.90625 C 8.082031 -4.925781 8.25 -6.066406 8.3125 -7.328125 C 8.3125 -7.785156 8.3125 -9.21875 8.3125 -11.625 C 8.3125 -14.03125 8.3125 -17.0625 8.3125 -20.71875 C 8.3125 -24.382812 8.3125 -28.375 8.3125 -32.6875 C 8.3125 -37.007812 8.3125 -41.332031 8.3125 -45.65625 C 8.3125 -49.976562 8.296875 -53.96875 8.265625 -57.625 C 8.234375 -61.289062 8.195312 -64.328125 8.15625 -66.734375 C 8.125 -69.140625 8.078125 -70.539062 8.015625 -70.9375 C 7.816406 -72.382812 7.023438 -73.472656 5.640625 -74.203125 C 5.179688 -74.398438 5.015625 -74.660156 5.140625 -74.984375 C 5.273438 -75.316406 5.441406 -75.484375 5.640625 -75.484375 L 23.25 -75.484375 C 23.644531 -75.484375 23.859375 -75.332031 23.890625 -75.03125 C 23.921875 -74.738281 23.707031 -74.492188 23.25 -74.296875 C 22.851562 -74.171875 22.40625 -73.988281 21.90625 -73.75 C 21.414062 -73.519531 21.171875 -73.175781 21.171875 -72.71875 C 21.171875 -72.382812 21.382812 -72.148438 21.8125 -72.015625 C 22.238281 -71.890625 22.71875 -71.796875 23.25 -71.734375 C 29.125 -70.941406 35.175781 -69.289062 41.40625 -66.78125 C 47.632812 -64.269531 53.800781 -61.25 59.90625 -57.71875 C 66.007812 -54.195312 71.796875 -50.503906 77.265625 -46.640625 C 82.742188 -42.785156 87.691406 -39.046875 92.109375 -35.421875 C 96.523438 -31.796875 100.21875 -28.660156 103.1875 -26.015625 C 103.78125 -25.492188 104.457031 -25.394531 105.21875 -25.71875 C 105.976562 -26.050781 106.359375 -26.644531 106.359375 -27.5 L 105.859375 -69.359375 C 105.859375 -70.609375 105.84375 -71.613281 105.8125 -72.375 C 105.78125 -73.132812 105.070312 -73.675781 103.6875 -74 C 103.226562 -74.132812 103.015625 -74.414062 103.046875 -74.84375 C 103.078125 -75.269531 103.289062 -75.484375 103.6875 -75.484375 L 121.59375 -75.484375 C 121.988281 -75.484375 122.1875 -75.285156 122.1875 -74.890625 C 122.1875 -74.492188 121.820312 -74.164062 121.09375 -73.90625 Z M 121.09375 -73.90625 "/></g></g></g><g clip-path="url(#ff0b97cc1b)"><g fill="#bb5c5c" fill-opacity="0.4"><g transform="translate(275.43192, 89.30581)"><g><path d="M 133.859375 -71.625 C 133.859375 -70.769531 133.859375 -69.632812 133.859375 -68.21875 C 133.859375 -66.800781 133.859375 -65.300781 133.859375 -63.71875 C 133.859375 -62.132812 133.875 -60.710938 133.90625 -59.453125 C 133.945312 -58.203125 133.96875 -57.378906 133.96875 -56.984375 C 133.96875 -56.660156 133.816406 -56.5 133.515625 -56.5 C 133.222656 -56.5 133.078125 -56.695312 133.078125 -57.09375 C 132.804688 -58.675781 132.160156 -59.679688 131.140625 -60.109375 C 130.117188 -60.535156 128.984375 -60.78125 127.734375 -60.84375 C 126.867188 -60.84375 125.476562 -60.84375 123.5625 -60.84375 C 121.65625 -60.84375 119.476562 -60.84375 117.03125 -60.84375 C 114.59375 -60.84375 112.117188 -60.84375 109.609375 -60.84375 C 107.109375 -60.84375 104.816406 -60.828125 102.734375 -60.796875 C 100.660156 -60.765625 99.066406 -60.75 97.953125 -60.75 C 96.234375 -60.75 95.375 -59.925781 95.375 -58.28125 C 95.375 -57.8125 95.375 -56.535156 95.375 -54.453125 C 95.375 -52.378906 95.375 -49.789062 95.375 -46.6875 C 95.375 -43.59375 95.375 -40.265625 95.375 -36.703125 C 95.375 -33.140625 95.375 -29.59375 95.375 -26.0625 C 95.375 -22.539062 95.375 -19.296875 95.375 -16.328125 C 95.375 -13.359375 95.375 -10.945312 95.375 -9.09375 C 95.375 -7.25 95.375 -6.226562 95.375 -6.03125 C 95.375 -5.175781 95.554688 -4.316406 95.921875 -3.453125 C 96.285156 -2.597656 96.925781 -1.972656 97.84375 -1.578125 C 98.113281 -1.378906 98.425781 -1.25 98.78125 -1.1875 C 99.144531 -1.125 99.265625 -0.894531 99.140625 -0.5 C 99.003906 -0.164062 98.769531 -0.015625 98.4375 -0.046875 C 98.113281 -0.078125 97.785156 -0.09375 97.453125 -0.09375 C 96.523438 -0.09375 95.238281 -0.09375 93.59375 -0.09375 C 91.945312 -0.09375 90.21875 -0.09375 88.40625 -0.09375 C 86.59375 -0.09375 84.972656 -0.09375 83.546875 -0.09375 C 82.128906 -0.09375 81.222656 -0.0625 80.828125 0 C 80.566406 0 80.300781 -0.015625 80.03125 -0.046875 C 79.769531 -0.078125 79.609375 -0.226562 79.546875 -0.5 C 79.484375 -0.757812 79.566406 -0.953125 79.796875 -1.078125 C 80.023438 -1.210938 80.207031 -1.316406 80.34375 -1.390625 C 81.65625 -1.984375 82.425781 -2.609375 82.65625 -3.265625 C 82.894531 -3.921875 83.015625 -4.910156 83.015625 -6.234375 C 83.015625 -6.691406 83.015625 -7.941406 83.015625 -9.984375 C 83.015625 -12.035156 83.015625 -14.59375 83.015625 -17.65625 C 83.015625 -20.726562 83.015625 -24.046875 83.015625 -27.609375 C 83.015625 -31.171875 83.015625 -34.726562 83.015625 -38.28125 C 83.015625 -41.84375 83.015625 -45.140625 83.015625 -48.171875 C 83.015625 -51.210938 82.992188 -53.707031 82.953125 -55.65625 C 82.921875 -57.601562 82.90625 -58.707031 82.90625 -58.96875 C 82.78125 -60.15625 82.125 -60.78125 80.9375 -60.84375 C 80.664062 -60.84375 79.472656 -60.84375 77.359375 -60.84375 C 75.253906 -60.84375 72.519531 -60.84375 69.15625 -60.84375 C 65.789062 -60.84375 62.046875 -60.84375 57.921875 -60.84375 C 53.804688 -60.84375 49.570312 -60.84375 45.21875 -60.84375 C 40.863281 -60.84375 36.625 -60.84375 32.5 -60.84375 C 28.375 -60.84375 24.660156 -60.84375 21.359375 -60.84375 C 18.066406 -60.84375 15.414062 -60.84375 13.40625 -60.84375 C 11.394531 -60.84375 10.320312 -60.84375 10.1875 -60.84375 C 8.875 -60.914062 7.851562 -60.703125 7.125 -60.203125 C 6.394531 -59.710938 5.832031 -58.804688 5.4375 -57.484375 C 5.4375 -57.347656 5.40625 -57.195312 5.34375 -57.03125 C 5.28125 -56.875 5.179688 -56.796875 5.046875 -56.796875 C 4.785156 -56.796875 4.65625 -57.054688 4.65625 -57.578125 C 4.582031 -59.753906 4.546875 -61.945312 4.546875 -64.15625 C 4.546875 -66.363281 4.546875 -68.59375 4.546875 -70.84375 C 4.546875 -71.894531 4.675781 -72.550781 4.9375 -72.8125 C 5.207031 -73.082031 5.867188 -73.21875 6.921875 -73.21875 C 7.515625 -73.21875 9.34375 -73.21875 12.40625 -73.21875 C 15.476562 -73.21875 19.472656 -73.21875 24.390625 -73.21875 C 29.304688 -73.21875 34.828125 -73.21875 40.953125 -73.21875 C 47.085938 -73.21875 53.519531 -73.21875 60.25 -73.21875 C 66.976562 -73.21875 73.6875 -73.21875 80.375 -73.21875 C 87.070312 -73.21875 93.4375 -73.21875 99.46875 -73.21875 C 105.507812 -73.21875 110.9375 -73.21875 115.75 -73.21875 C 120.570312 -73.21875 124.429688 -73.21875 127.328125 -73.21875 C 130.234375 -73.21875 131.882812 -73.21875 132.28125 -73.21875 C 133.332031 -73.21875 133.859375 -72.6875 133.859375 -71.625 Z M 133.859375 -71.625 "/></g></g></g></g><g fill="#f4edca" fill-opacity="1"><g transform="translate(0.561042, 84.932904)"><g><path d="M 138.40625 -15.734375 C 138.40625 -15.335938 138.40625 -14.507812 138.40625 -13.25 C 138.40625 -12 138.390625 -10.582031 138.359375 -9 C 138.328125 -7.414062 138.3125 -5.898438 138.3125 -4.453125 C 138.3125 -3.003906 138.3125 -1.882812 138.3125 -1.09375 C 138.3125 -0.03125 137.785156 0.5 136.734375 0.5 C 136.335938 0.5 134.554688 0.5 131.390625 0.5 C 128.222656 0.5 124.050781 0.5 118.875 0.5 C 113.695312 0.5 107.875 0.5 101.40625 0.5 C 94.945312 0.5 88.171875 0.5 81.078125 0.5 C 73.984375 0.5 66.972656 0.5 60.046875 0.5 C 53.128906 0.5 46.601562 0.5 40.46875 0.5 C 34.332031 0.5 28.988281 0.5 24.4375 0.5 C 24.375 0.5 24.242188 0.5 24.046875 0.5 L 5.640625 0.5 C 5.046875 0.5 4.78125 0.347656 4.84375 0.046875 C 4.914062 -0.242188 5.179688 -0.457031 5.640625 -0.59375 C 6.828125 -0.851562 7.617188 -1.363281 8.015625 -2.125 C 8.410156 -2.882812 8.609375 -3.722656 8.609375 -4.640625 C 8.609375 -5.566406 8.609375 -6.460938 8.609375 -7.328125 C 8.609375 -7.648438 8.609375 -8.800781 8.609375 -10.78125 C 8.609375 -12.757812 8.609375 -15.265625 8.609375 -18.296875 C 8.609375 -21.335938 8.609375 -24.671875 8.609375 -28.296875 L 8.609375 -69.453125 C 8.546875 -70.304688 8.394531 -71.0625 8.15625 -71.71875 C 7.925781 -72.382812 7.285156 -72.945312 6.234375 -73.40625 C 5.703125 -73.601562 5.453125 -73.867188 5.484375 -74.203125 C 5.523438 -74.535156 5.84375 -74.703125 6.4375 -74.703125 L 23.9375 -74.703125 C 24.070312 -74.703125 24.207031 -74.664062 24.34375 -74.59375 C 28.894531 -74.59375 34.21875 -74.59375 40.3125 -74.59375 C 46.414062 -74.59375 52.945312 -74.59375 59.90625 -74.59375 C 66.863281 -74.59375 73.867188 -74.59375 80.921875 -74.59375 C 87.984375 -74.59375 94.765625 -74.59375 101.265625 -74.59375 C 107.765625 -74.59375 113.601562 -74.59375 118.78125 -74.59375 C 123.957031 -74.59375 128.128906 -74.609375 131.296875 -74.640625 C 134.460938 -74.679688 136.238281 -74.703125 136.625 -74.703125 C 137.6875 -74.703125 138.21875 -74.140625 138.21875 -73.015625 C 138.21875 -72.222656 138.21875 -71.097656 138.21875 -69.640625 C 138.21875 -68.191406 138.21875 -66.675781 138.21875 -65.09375 C 138.21875 -63.507812 138.21875 -62.09375 138.21875 -60.84375 C 138.21875 -59.59375 138.21875 -58.769531 138.21875 -58.375 C 138.21875 -58.113281 138.082031 -57.984375 137.8125 -57.984375 C 137.550781 -57.984375 137.390625 -58.144531 137.328125 -58.46875 C 137.128906 -60.125 136.519531 -61.164062 135.5 -61.59375 C 134.476562 -62.019531 133.304688 -62.234375 131.984375 -62.234375 C 130.929688 -62.234375 129.082031 -62.234375 126.4375 -62.234375 C 123.800781 -62.234375 120.863281 -62.234375 117.625 -62.234375 C 114.394531 -62.234375 111.429688 -62.234375 108.734375 -62.234375 L 108.734375 -62.328125 L 78.859375 -62.328125 C 76.285156 -62.328125 73.195312 -62.328125 69.59375 -62.328125 C 66 -62.328125 62.140625 -62.328125 58.015625 -62.328125 C 53.898438 -62.328125 49.75 -62.328125 45.5625 -62.328125 C 41.375 -62.328125 37.363281 -62.328125 33.53125 -62.328125 C 29.707031 -62.328125 26.378906 -62.328125 23.546875 -62.328125 C 22.816406 -62.328125 22.222656 -62.078125 21.765625 -61.578125 C 21.304688 -61.085938 21.078125 -60.515625 21.078125 -59.859375 C 21.078125 -57.679688 21.054688 -55.140625 21.015625 -52.234375 C 20.984375 -49.335938 20.96875 -46.304688 20.96875 -43.140625 C 20.96875 -42.410156 21.210938 -41.8125 21.703125 -41.34375 C 22.203125 -40.882812 22.816406 -40.65625 23.546875 -40.65625 C 26.773438 -40.65625 29.820312 -40.65625 32.6875 -40.65625 C 35.5625 -40.65625 38.054688 -40.65625 40.171875 -40.65625 L 70.140625 -40.65625 L 70.140625 -40.765625 C 72.847656 -40.765625 75.816406 -40.742188 79.046875 -40.703125 C 82.285156 -40.671875 85.222656 -40.671875 87.859375 -40.703125 C 90.492188 -40.742188 92.335938 -40.765625 93.390625 -40.765625 C 94.710938 -40.765625 95.882812 -40.976562 96.90625 -41.40625 C 97.925781 -41.832031 98.535156 -42.867188 98.734375 -44.515625 C 98.734375 -44.847656 98.878906 -45.015625 99.171875 -45.015625 C 99.472656 -45.015625 99.625 -44.847656 99.625 -44.515625 C 99.625 -44.191406 99.625 -43.515625 99.625 -42.484375 C 99.625 -41.460938 99.625 -40.296875 99.625 -38.984375 C 99.625 -38.910156 99.625 -38.875 99.625 -38.875 C 99.625 -38.351562 99.625 -37.710938 99.625 -36.953125 C 99.625 -36.191406 99.625 -35.351562 99.625 -34.4375 C 99.625 -33.570312 99.625 -32.757812 99.625 -32 C 99.625 -31.25 99.625 -30.609375 99.625 -30.078125 L 99.625 -29.875 C 99.625 -28.625 99.625 -27.488281 99.625 -26.46875 C 99.625 -25.445312 99.625 -24.738281 99.625 -24.34375 C 99.625 -24.070312 99.472656 -23.9375 99.171875 -23.9375 C 98.878906 -23.9375 98.734375 -24.101562 98.734375 -24.4375 C 98.535156 -26.082031 97.925781 -27.117188 96.90625 -27.546875 C 95.882812 -27.984375 94.710938 -28.203125 93.390625 -28.203125 C 92.335938 -28.203125 90.492188 -28.203125 87.859375 -28.203125 C 85.222656 -28.203125 82.285156 -28.203125 79.046875 -28.203125 C 75.816406 -28.203125 72.847656 -28.203125 70.140625 -28.203125 L 70.140625 -28.296875 L 40.171875 -28.296875 C 38.054688 -28.296875 35.5625 -28.296875 32.6875 -28.296875 C 29.820312 -28.296875 26.773438 -28.296875 23.546875 -28.296875 C 22.816406 -28.296875 22.203125 -28.046875 21.703125 -27.546875 C 21.210938 -27.054688 20.96875 -26.484375 20.96875 -25.828125 L 20.96875 -21.375 C 20.96875 -20.050781 20.96875 -18.796875 20.96875 -17.609375 C 20.96875 -16.421875 21.003906 -15.300781 21.078125 -14.25 C 21.078125 -13.582031 21.304688 -13.019531 21.765625 -12.5625 C 22.222656 -12.101562 22.785156 -11.875 23.453125 -11.875 C 26.347656 -11.875 29.707031 -11.859375 33.53125 -11.828125 C 37.363281 -11.796875 41.390625 -11.78125 45.609375 -11.78125 C 49.828125 -11.78125 54 -11.78125 58.125 -11.78125 C 62.25 -11.78125 66.109375 -11.796875 69.703125 -11.828125 C 73.296875 -11.859375 76.378906 -11.875 78.953125 -11.875 L 108.828125 -11.875 C 111.597656 -11.875 114.582031 -11.875 117.78125 -11.875 C 120.976562 -11.875 123.910156 -11.875 126.578125 -11.875 C 129.253906 -11.875 131.125 -11.875 132.1875 -11.875 C 133.4375 -11.875 134.570312 -12.101562 135.59375 -12.5625 C 136.613281 -13.019531 137.253906 -14.039062 137.515625 -15.625 C 137.515625 -16.019531 137.660156 -16.21875 137.953125 -16.21875 C 138.253906 -16.21875 138.40625 -16.054688 138.40625 -15.734375 Z M 138.40625 -15.734375 "/></g></g></g><g fill="#f4edca" fill-opacity="1"><g transform="translate(144.219811, 84.932904)"><g><path d="M 121.09375 -73.90625 C 120.175781 -73.570312 119.566406 -73.039062 119.265625 -72.3125 C 118.972656 -71.59375 118.828125 -70.867188 118.828125 -70.140625 C 118.828125 -69.617188 118.804688 -68.132812 118.765625 -65.6875 C 118.734375 -63.25 118.71875 -60.148438 118.71875 -56.390625 C 118.71875 -52.628906 118.71875 -48.570312 118.71875 -44.21875 C 118.71875 -39.863281 118.71875 -35.492188 118.71875 -31.109375 C 118.71875 -26.722656 118.71875 -22.664062 118.71875 -18.9375 C 118.71875 -15.21875 118.71875 -12.15625 118.71875 -9.75 C 118.71875 -7.34375 118.71875 -5.90625 118.71875 -5.4375 C 118.71875 -4.25 118.832031 -3.304688 119.0625 -2.609375 C 119.300781 -1.921875 120.046875 -1.445312 121.296875 -1.1875 C 121.753906 -1.050781 121.953125 -0.785156 121.890625 -0.390625 C 121.828125 0.00390625 121.628906 0.203125 121.296875 0.203125 L 103.484375 0.203125 C 103.085938 0.203125 102.890625 -0.0078125 102.890625 -0.4375 C 102.890625 -0.875 103.1875 -1.15625 103.78125 -1.28125 C 103.914062 -1.28125 104.050781 -1.316406 104.1875 -1.390625 C 104.78125 -1.585938 105.191406 -1.984375 105.421875 -2.578125 C 105.648438 -3.171875 105.566406 -3.726562 105.171875 -4.25 C 103.253906 -6.957031 100.484375 -10.125 96.859375 -13.75 C 93.234375 -17.375 89.046875 -21.164062 84.296875 -25.125 C 79.546875 -29.082031 74.484375 -32.957031 69.109375 -36.75 C 63.734375 -40.539062 58.304688 -43.96875 52.828125 -47.03125 C 47.359375 -50.101562 42.097656 -52.5625 37.046875 -54.40625 C 32.003906 -56.257812 27.472656 -57.21875 23.453125 -57.28125 C 21.472656 -57.613281 20.484375 -56.789062 20.484375 -54.8125 C 20.484375 -54.21875 20.460938 -52.695312 20.421875 -50.25 C 20.390625 -47.8125 20.359375 -44.828125 20.328125 -41.296875 C 20.296875 -37.773438 20.242188 -34.082031 20.171875 -30.21875 C 20.109375 -26.363281 20.0625 -22.6875 20.03125 -19.1875 C 20 -15.695312 19.984375 -12.75 19.984375 -10.34375 C 19.984375 -7.9375 19.984375 -6.46875 19.984375 -5.9375 C 20.046875 -5.007812 20.359375 -4.050781 20.921875 -3.0625 C 21.484375 -2.070312 22.128906 -1.414062 22.859375 -1.09375 C 23.253906 -0.957031 23.46875 -0.707031 23.5 -0.34375 C 23.53125 0.0195312 23.25 0.203125 22.65625 0.203125 C 21.726562 0.203125 20.40625 0.179688 18.6875 0.140625 C 16.976562 0.109375 15.179688 0.09375 13.296875 0.09375 C 11.421875 0.09375 9.738281 0.09375 8.25 0.09375 C 6.769531 0.09375 5.800781 0.128906 5.34375 0.203125 C 5.007812 0.203125 4.742188 -0.03125 4.546875 -0.5 C 4.484375 -0.757812 4.566406 -0.953125 4.796875 -1.078125 C 5.023438 -1.210938 5.238281 -1.316406 5.4375 -1.390625 C 6.757812 -2.046875 7.550781 -2.882812 7.8125 -3.90625 C 8.082031 -4.925781 8.25 -6.066406 8.3125 -7.328125 C 8.3125 -7.785156 8.3125 -9.21875 8.3125 -11.625 C 8.3125 -14.03125 8.3125 -17.0625 8.3125 -20.71875 C 8.3125 -24.382812 8.3125 -28.375 8.3125 -32.6875 C 8.3125 -37.007812 8.3125 -41.332031 8.3125 -45.65625 C 8.3125 -49.976562 8.296875 -53.96875 8.265625 -57.625 C 8.234375 -61.289062 8.195312 -64.328125 8.15625 -66.734375 C 8.125 -69.140625 8.078125 -70.539062 8.015625 -70.9375 C 7.816406 -72.382812 7.023438 -73.472656 5.640625 -74.203125 C 5.179688 -74.398438 5.015625 -74.660156 5.140625 -74.984375 C 5.273438 -75.316406 5.441406 -75.484375 5.640625 -75.484375 L 23.25 -75.484375 C 23.644531 -75.484375 23.859375 -75.332031 23.890625 -75.03125 C 23.921875 -74.738281 23.707031 -74.492188 23.25 -74.296875 C 22.851562 -74.171875 22.40625 -73.988281 21.90625 -73.75 C 21.414062 -73.519531 21.171875 -73.175781 21.171875 -72.71875 C 21.171875 -72.382812 21.382812 -72.148438 21.8125 -72.015625 C 22.238281 -71.890625 22.71875 -71.796875 23.25 -71.734375 C 29.125 -70.941406 35.175781 -69.289062 41.40625 -66.78125 C 47.632812 -64.269531 53.800781 -61.25 59.90625 -57.71875 C 66.007812 -54.195312 71.796875 -50.503906 77.265625 -46.640625 C 82.742188 -42.785156 87.691406 -39.046875 92.109375 -35.421875 C 96.523438 -31.796875 100.21875 -28.660156 103.1875 -26.015625 C 103.78125 -25.492188 104.457031 -25.394531 105.21875 -25.71875 C 105.976562 -26.050781 106.359375 -26.644531 106.359375 -27.5 L 105.859375 -69.359375 C 105.859375 -70.609375 105.84375 -71.613281 105.8125 -72.375 C 105.78125 -73.132812 105.070312 -73.675781 103.6875 -74 C 103.226562 -74.132812 103.015625 -74.414062 103.046875 -74.84375 C 103.078125 -75.269531 103.289062 -75.484375 103.6875 -75.484375 L 121.59375 -75.484375 C 121.988281 -75.484375 122.1875 -75.285156 122.1875 -74.890625 C 122.1875 -74.492188 121.820312 -74.164062 121.09375 -73.90625 Z M 121.09375 -73.90625 "/></g></g></g><g fill="#f4edca" fill-opacity="1"><g transform="translate(271.059029, 84.932904)"><g><path d="M 133.859375 -71.625 C 133.859375 -70.769531 133.859375 -69.632812 133.859375 -68.21875 C 133.859375 -66.800781 133.859375 -65.300781 133.859375 -63.71875 C 133.859375 -62.132812 133.875 -60.710938 133.90625 -59.453125 C 133.945312 -58.203125 133.96875 -57.378906 133.96875 -56.984375 C 133.96875 -56.660156 133.816406 -56.5 133.515625 -56.5 C 133.222656 -56.5 133.078125 -56.695312 133.078125 -57.09375 C 132.804688 -58.675781 132.160156 -59.679688 131.140625 -60.109375 C 130.117188 -60.535156 128.984375 -60.78125 127.734375 -60.84375 C 126.867188 -60.84375 125.476562 -60.84375 123.5625 -60.84375 C 121.65625 -60.84375 119.476562 -60.84375 117.03125 -60.84375 C 114.59375 -60.84375 112.117188 -60.84375 109.609375 -60.84375 C 107.109375 -60.84375 104.816406 -60.828125 102.734375 -60.796875 C 100.660156 -60.765625 99.066406 -60.75 97.953125 -60.75 C 96.234375 -60.75 95.375 -59.925781 95.375 -58.28125 C 95.375 -57.8125 95.375 -56.535156 95.375 -54.453125 C 95.375 -52.378906 95.375 -49.789062 95.375 -46.6875 C 95.375 -43.59375 95.375 -40.265625 95.375 -36.703125 C 95.375 -33.140625 95.375 -29.59375 95.375 -26.0625 C 95.375 -22.539062 95.375 -19.296875 95.375 -16.328125 C 95.375 -13.359375 95.375 -10.945312 95.375 -9.09375 C 95.375 -7.25 95.375 -6.226562 95.375 -6.03125 C 95.375 -5.175781 95.554688 -4.316406 95.921875 -3.453125 C 96.285156 -2.597656 96.925781 -1.972656 97.84375 -1.578125 C 98.113281 -1.378906 98.425781 -1.25 98.78125 -1.1875 C 99.144531 -1.125 99.265625 -0.894531 99.140625 -0.5 C 99.003906 -0.164062 98.769531 -0.015625 98.4375 -0.046875 C 98.113281 -0.078125 97.785156 -0.09375 97.453125 -0.09375 C 96.523438 -0.09375 95.238281 -0.09375 93.59375 -0.09375 C 91.945312 -0.09375 90.21875 -0.09375 88.40625 -0.09375 C 86.59375 -0.09375 84.972656 -0.09375 83.546875 -0.09375 C 82.128906 -0.09375 81.222656 -0.0625 80.828125 0 C 80.566406 0 80.300781 -0.015625 80.03125 -0.046875 C 79.769531 -0.078125 79.609375 -0.226562 79.546875 -0.5 C 79.484375 -0.757812 79.566406 -0.953125 79.796875 -1.078125 C 80.023438 -1.210938 80.207031 -1.316406 80.34375 -1.390625 C 81.65625 -1.984375 82.425781 -2.609375 82.65625 -3.265625 C 82.894531 -3.921875 83.015625 -4.910156 83.015625 -6.234375 C 83.015625 -6.691406 83.015625 -7.941406 83.015625 -9.984375 C 83.015625 -12.035156 83.015625 -14.59375 83.015625 -17.65625 C 83.015625 -20.726562 83.015625 -24.046875 83.015625 -27.609375 C 83.015625 -31.171875 83.015625 -34.726562 83.015625 -38.28125 C 83.015625 -41.84375 83.015625 -45.140625 83.015625 -48.171875 C 83.015625 -51.210938 82.992188 -53.707031 82.953125 -55.65625 C 82.921875 -57.601562 82.90625 -58.707031 82.90625 -58.96875 C 82.78125 -60.15625 82.125 -60.78125 80.9375 -60.84375 C 80.664062 -60.84375 79.472656 -60.84375 77.359375 -60.84375 C 75.253906 -60.84375 72.519531 -60.84375 69.15625 -60.84375 C 65.789062 -60.84375 62.046875 -60.84375 57.921875 -60.84375 C 53.804688 -60.84375 49.570312 -60.84375 45.21875 -60.84375 C 40.863281 -60.84375 36.625 -60.84375 32.5 -60.84375 C 28.375 -60.84375 24.660156 -60.84375 21.359375 -60.84375 C 18.066406 -60.84375 15.414062 -60.84375 13.40625 -60.84375 C 11.394531 -60.84375 10.320312 -60.84375 10.1875 -60.84375 C 8.875 -60.914062 7.851562 -60.703125 7.125 -60.203125 C 6.394531 -59.710938 5.832031 -58.804688 5.4375 -57.484375 C 5.4375 -57.347656 5.40625 -57.195312 5.34375 -57.03125 C 5.28125 -56.875 5.179688 -56.796875 5.046875 -56.796875 C 4.785156 -56.796875 4.65625 -57.054688 4.65625 -57.578125 C 4.582031 -59.753906 4.546875 -61.945312 4.546875 -64.15625 C 4.546875 -66.363281 4.546875 -68.59375 4.546875 -70.84375 C 4.546875 -71.894531 4.675781 -72.550781 4.9375 -72.8125 C 5.207031 -73.082031 5.867188 -73.21875 6.921875 -73.21875 C 7.515625 -73.21875 9.34375 -73.21875 12.40625 -73.21875 C 15.476562 -73.21875 19.472656 -73.21875 24.390625 -73.21875 C 29.304688 -73.21875 34.828125 -73.21875 40.953125 -73.21875 C 47.085938 -73.21875 53.519531 -73.21875 60.25 -73.21875 C 66.976562 -73.21875 73.6875 -73.21875 80.375 -73.21875 C 87.070312 -73.21875 93.4375 -73.21875 99.46875 -73.21875 C 105.507812 -73.21875 110.9375 -73.21875 115.75 -73.21875 C 120.570312 -73.21875 124.429688 -73.21875 127.328125 -73.21875 C 130.234375 -73.21875 131.882812 -73.21875 132.28125 -73.21875 C 133.332031 -73.21875 133.859375 -72.6875 133.859375 -71.625 Z M 133.859375 -71.625 "/></g></g></g></g></g></svg>